<svg width="134" height="116" viewBox="0 0 134 116" fill="none" xmlns="http://www.w3.org/2000/svg">
<path d="M132 39.6414C131.575 39.386 67.2239 1.19155 67.2239 1.19155C66.7698 0.93615 66.2023 0.93615 65.7766 1.19155L34.5894 19.2682C34.1353 19.5236 33.8516 20.006 33.8516 20.5168V56.585C33.8516 57.0958 34.1353 57.5783 34.5894 57.8337L99.3375 96.1416C99.7915 96.397 100.331 96.397 100.785 96.1416L131.972 78.2068C132.426 77.9514 132.71 77.469 132.71 76.9582C132.71 76.9582 132.71 41.4575 132.71 40.9184C132.71 40.3792 132.426 39.8968 132 39.6414Z" fill="#FFF5F9" stroke="#E31C58" stroke-width="1.73195" stroke-miterlimit="10" stroke-linejoin="round"/>
<path d="M34.6465 57.2659V20.4883L66.5148 38.8771V75.598L34.6465 57.2659Z" fill="#FFE6F0"/>
<path d="M72.7285 25.8243C72.4163 26.5337 71.4799 27.0729 70.288 27.2432C69.0678 27.4418 67.8191 27.2432 66.9394 26.7324L54.5099 19.5528C53.6302 19.042 53.2897 18.3042 53.6019 17.6231C53.914 16.9137 54.8505 16.3745 56.0423 16.2042L72.9271 13.5935C74.1474 13.3948 75.396 13.5935 76.2757 14.1043C77.1554 14.6151 77.496 15.3529 77.1838 16.0623L72.7285 25.8243ZM69.9191 26.4486C70.6285 26.3351 71.1677 26.0229 71.3664 25.5973L75.8501 15.8069C76.0487 15.3813 75.8501 14.9556 75.3109 14.6434C74.7717 14.3313 74.0339 14.2178 73.3244 14.3313L56.4396 16.942C55.7302 17.0555 55.191 17.3677 54.9924 17.7934C54.7937 18.219 54.9924 18.6447 55.5315 18.9569L67.9326 26.1364C68.4434 26.4486 69.1813 26.5621 69.9191 26.4486Z" fill="#E31C58"/>
<path d="M75.2826 14.6716C75.8218 14.9837 76.0204 15.4094 75.8218 15.8351L71.3381 25.6254C71.1394 26.0511 70.6002 26.3632 69.8908 26.4767C69.1814 26.5903 68.4435 26.4767 67.9044 26.1646L55.5033 18.985C54.9641 18.6729 54.7654 18.2472 54.9641 17.8215C55.1627 17.3959 55.7019 17.0837 56.4113 16.9702L73.2961 14.3594C74.034 14.2459 74.7718 14.3594 75.2826 14.6716Z" fill="#FFEBF3"/>
<path d="M106.24 46.4473C105.928 47.1568 104.992 47.696 103.8 47.8662C102.579 48.0649 101.331 47.8662 100.451 47.3554L88.0217 40.1758C87.142 39.665 86.8014 38.9272 87.1136 38.2462C87.4257 37.5367 88.3622 36.9975 89.5541 36.8273L106.439 34.2165C107.659 34.0179 108.908 34.2165 109.787 34.7273C110.667 35.2381 111.008 35.9759 110.696 36.6854L106.24 46.4473ZM103.431 47.0716C104.14 46.9581 104.679 46.646 104.878 46.2203L109.362 36.43C109.56 36.0043 109.362 35.5786 108.823 35.2665C108.283 34.9543 107.546 34.8408 106.836 34.9543L89.9514 37.5651C89.2419 37.6786 88.7027 37.9908 88.5041 38.4164C88.3054 38.8421 88.5041 39.2678 89.0433 39.5799L101.444 46.7595C101.955 47.0716 102.693 47.1852 103.431 47.0716Z" fill="#E31C58"/>
<path d="M108.794 35.2946C109.333 35.6068 109.532 36.0325 109.333 36.4581L104.85 46.2485C104.651 46.6741 104.112 46.9863 103.403 47.0998C102.693 47.2133 101.955 47.0998 101.416 46.7876L89.015 39.6081C88.4758 39.2959 88.2771 38.8702 88.4758 38.4446C88.6744 38.0189 89.2136 37.7067 89.9231 37.5932L106.808 34.9825C107.546 34.869 108.284 34.9825 108.794 35.2946Z" fill="#FFEBF3"/>
<g clip-path="url(#clip0_12_3694)">
<path d="M65.4395 38.2682L34.2239 20.1916C33.7698 19.9361 33.2023 19.9361 32.7766 20.1916L1.58939 38.2682C1.13534 38.5236 0.851562 39.006 0.851562 39.5168V75.585C0.851562 76.0958 1.13534 76.5782 1.58939 76.8336L32.7766 94.7684C33.2306 95.0238 33.7698 95.0238 34.2239 94.7684L65.4111 76.8336C65.8651 76.5782 66.1489 76.0958 66.1489 75.585V39.5452C66.1489 39.006 65.8651 38.5236 65.4395 38.2682Z" fill="white" stroke="#F43D74" stroke-width="1.70267" stroke-miterlimit="10"/>
<path d="M65.3536 76.2659V39.4883L33.5137 57.8771V94.598L65.3536 76.2659Z" fill="#F5DEE7"/>
<path d="M1.64648 76.2659V39.4883L33.5148 57.8771V94.598L1.64648 76.2659Z" fill="#FFF3F6"/>
</g>
<g clip-path="url(#clip1_12_3694)">
<path d="M99.4395 58.2682L68.2239 40.1916C67.7698 39.9361 67.2023 39.9361 66.7766 40.1916L35.5894 58.2682C35.1353 58.5236 34.8516 59.006 34.8516 59.5168V95.585C34.8516 96.0958 35.1353 96.5782 35.5894 96.8336L66.7766 114.768C67.2306 115.024 67.7698 115.024 68.2239 114.768L99.4111 96.8336C99.8651 96.5782 100.149 96.0958 100.149 95.585V59.5452C100.149 59.006 99.8651 58.5236 99.4395 58.2682Z" fill="white" stroke="#142032" stroke-width="1.77637" stroke-miterlimit="10"/>
<path d="M99.3536 96.2659V59.4883L67.5137 77.8771V114.598L99.3536 96.2659Z" fill="#142032" fill-opacity="0.81"/>
<path d="M35.6465 96.2659V59.4883L67.5148 77.8771V114.598L35.6465 96.2659Z" fill="#E7E9EE"/>
<path d="M58.6596 64.2838L58.2907 61.0771L54.1191 59.2042L57.7799 56.5083L57.411 53.3016L62.9446 52.7057L66.6338 50.0098L70.8053 51.8827L76.339 51.2584L76.7079 54.4935L80.9078 56.338L77.2187 59.0339L77.5876 62.2406L72.0539 62.8365L68.3932 65.5324L64.1933 63.6879L58.6596 64.2838Z" fill="#142032" fill-opacity="0.81" stroke="#142032" stroke-width="1.4803" stroke-miterlimit="10" stroke-linejoin="round"/>
</g>
<path d="M42.4252 33.302C47.3629 36.1681 47.3913 40.7937 42.4819 43.6599C37.5726 46.526 29.5417 46.526 24.6039 43.6599C19.6662 40.7937 19.6378 36.1397 24.5472 33.302C29.4565 30.4358 37.4591 30.4358 42.4252 33.302ZM25.5971 43.0639C29.9957 45.5896 37.1185 45.5896 41.4887 43.0639C45.8589 40.5383 45.8305 36.3951 41.432 33.8695C37.0334 31.3439 29.9106 31.3439 25.5404 33.8695C21.1702 36.3951 21.1986 40.5383 25.5971 43.0639Z" fill="#E31C58"/>
<path d="M41.4328 33.8688C45.8314 36.3945 45.8597 40.5376 41.4896 43.0632C37.1194 45.5889 29.9965 45.5889 25.598 43.0632C21.1994 40.5376 21.171 36.3945 25.5412 33.8688C29.9114 31.3432 37.0342 31.3432 41.4328 33.8688Z" fill="#F5DEE7"/>
<path d="M132.84 77.9183V41.1406L101 59.5294V96.2503L132.84 77.9183Z" fill="#E31C58" stroke="#E31C58" stroke-width="0.288659" stroke-miterlimit="10" stroke-linejoin="round"/>
<defs>
<clipPath id="clip0_12_3694">
<rect width="67" height="76.6768" fill="white" transform="translate(0 19.1406)"/>
</clipPath>
<clipPath id="clip1_12_3694">
<rect width="67" height="76.6768" fill="white" transform="translate(34 39.1406)"/>
</clipPath>
</defs>
</svg>
