<svg xmlns="http://www.w3.org/2000/svg" height="64" width="64" viewBox="0 0 64 64"><title>puzzle toy</title><g stroke-linecap="square" stroke-width="2" fill="none" stroke="#142032" stroke-linejoin="miter" stroke-miterlimit="10"><path data-cap="butt" d="M14,50.757,32,61.151,50,50.759" stroke-linecap="butt"></path><path data-cap="butt" d="M25,7.456,7,17.85V38.639" stroke-linecap="butt"></path><polyline data-cap="butt" points="57 38.614 57 17.85 38.997 7.456" stroke-linecap="butt"></polyline><line data-cap="butt" x1="32" y1="61.151" x2="32" y2="32.284" stroke-linecap="butt"></line><polyline data-cap="butt" points="7 17.85 32 32.284 57 17.85" stroke-linecap="butt"></polyline><path data-cap="butt" d="M39,7.5v10c0,2.485-3.134,4.5-7,4.5s-7-2.015-7-4.5V7.5" stroke-linecap="butt" stroke="#f71963"></path><ellipse cx="32" cy="7.5" rx="7" ry="4.5" stroke="#f71963"></ellipse><path data-cap="butt" d="M56.964,38.614l-8.661-5c-2.152-1.243-5.464.464-7.4,3.812s-1.755,7.07.4,8.312l8.661,5" stroke-linecap="butt" stroke="#f71963"></path><path data-cap="butt" d="M14.036,50.738l8.661-5c2.152-1.242,2.33-4.964.4-8.312s-5.245-5.055-7.4-3.812l-8.661,5" stroke-linecap="butt" stroke="#f71963"></path><path d="M14.434,42.426c-1.933-3.348-5.245-5.055-7.4-3.812s-2.33,4.964-.4,8.312,5.245,5.055,7.4,3.812S16.367,45.774,14.434,42.426Z" stroke="#f71963"></path><path d="M56.964,38.614c-2.153-1.243-5.465.464-7.4,3.812s-1.755,7.07.4,8.312,5.464-.464,7.4-3.812S59.116,39.856,56.964,38.614Z" stroke="#f71963"></path></g></svg>