<svg style="display:none">

  <symbol id="Load" xmlns="http://www.w3.org/2000/svg" viewBox="0 0 24 24" fill="currentColor">
    <g stroke="currentColor">
      <circle
        cx="12"
        cy="12"
        r="9.5"
        fill="none"
        stroke-linecap="round"
        stroke-width="3"
      >
        <animate
          attributeName="stroke-dasharray"
          calcMode="spline"
          dur="1.5s"
          keySplines="0.42,0,0.58,1;0.42,0,0.58,1;0.42,0,0.58,1"
          keyTimes="0;0.475;0.95;1"
          repeatCount="indefinite"
          values="0 150;42 150;42 150;42 150"
        />
        <animate
          attributeName="stroke-dashoffset"
          calcMode="spline"
          dur="1.5s"
          keySplines="0.42,0,0.58,1;0.42,0,0.58,1;0.42,0,0.58,1"
          keyTimes="0;0.475;0.95;1"
          repeatCount="indefinite"
          values="0;-16;-59;-59"
        />
      </circle>
      <animateTransform
        attributeName="transform"
        dur="2s"
        repeatCount="indefinite"
        type="rotate"
        values="0 12 12;360 12 12"
      />
    </g>
  </symbol>
  <symbol
    id="OpenInNew"
    xmlns="http://www.w3.org/2000/svg"
    viewBox="0 -960 960 960"
    fill="currentColor"
  >
    <path
      d="M200-120q-33 0-56.5-23.5T120-200v-560q0-33 23.5-56.5T200-840h280v80H200v560h560v-280h80v280q0 33-23.5 56.5T760-120H200Zm188-212-56-56 372-372H560v-80h280v280h-80v-144L388-332Z" />
  </symbol>

  <symbol id="Profile" xmlns="http://www.w3.org/2000/svg" viewBox="0 0 20 20" fill="none">

    <path
      d="M9.99992 9.99992C9.08325 9.99992 8.29853 9.67353 7.64575 9.02075C6.99297 8.36797 6.66659 7.58325 6.66659 6.66659C6.66659 5.74992 6.99297 4.9652 7.64575 4.31242C8.29853 3.65964 9.08325 3.33325 9.99992 3.33325C10.9166 3.33325 11.7013 3.65964 12.3541 4.31242C13.0069 4.9652 13.3333 5.74992 13.3333 6.66659C13.3333 7.58325 13.0069 8.36797 12.3541 9.02075C11.7013 9.67353 10.9166 9.99992 9.99992 9.99992ZM3.33325 16.6666V14.3333C3.33325 13.861 3.45478 13.427 3.69784 13.0312C3.94089 12.6353 4.26381 12.3333 4.66659 12.1249C5.5277 11.6944 6.4027 11.3714 7.29159 11.1562C8.18047 10.9409 9.08325 10.8333 9.99992 10.8333C10.9166 10.8333 11.8194 10.9409 12.7083 11.1562C13.5971 11.3714 14.4721 11.6944 15.3333 12.1249C15.736 12.3333 16.0589 12.6353 16.302 13.0312C16.5451 13.427 16.6666 13.861 16.6666 14.3333V16.6666H3.33325ZM4.99992 14.9999H14.9999V14.3333C14.9999 14.1805 14.9617 14.0416 14.8853 13.9166C14.8089 13.7916 14.7083 13.6944 14.5833 13.6249C13.8333 13.2499 13.0763 12.9687 12.3124 12.7812C11.5485 12.5937 10.7777 12.4999 9.99992 12.4999C9.22214 12.4999 8.45131 12.5937 7.68742 12.7812C6.92353 12.9687 6.16659 13.2499 5.41659 13.6249C5.29159 13.6944 5.19089 13.7916 5.1145 13.9166C5.03811 14.0416 4.99992 14.1805 4.99992 14.3333V14.9999ZM9.99992 8.33325C10.4583 8.33325 10.8506 8.17006 11.177 7.84367C11.5034 7.51728 11.6666 7.12492 11.6666 6.66659C11.6666 6.20825 11.5034 5.81589 11.177 5.4895C10.8506 5.16311 10.4583 4.99992 9.99992 4.99992C9.54159 4.99992 9.14922 5.16311 8.82284 5.4895C8.49645 5.81589 8.33325 6.20825 8.33325 6.66659C8.33325 7.12492 8.49645 7.51728 8.82284 7.84367C9.14922 8.17006 9.54159 8.33325 9.99992 8.33325Z"
      fill="black" />

  </symbol>
</svg>
