<svg style="display:none">
  <symbol id="ArrowElbowDownRight" xmlns="http://www.w3.org/2000/svg" viewBox="0 0 256 256" fill="currentColor"><rect width="256" height="256" fill="none"></rect><polyline points="160 128 208 176 160 224" fill="none" stroke="currentColor" stroke-linecap="round" stroke-linejoin="round" stroke-width="16"></polyline><polyline points="64 32 64 176 208 176" fill="none" stroke="currentColor" stroke-linecap="round" stroke-linejoin="round" stroke-width="16"></polyline></symbol>

  <symbol id="ArrowLeft" xmlns="http://www.w3.org/2000/svg" fill="currentColor" viewBox="0 0 256 256"><rect width="256" height="256" fill="none"></rect><line x1="216" y1="128" x2="40" y2="128" fill="none" stroke="currentColor" stroke-linecap="round" stroke-linejoin="round"></line><polyline points="112 56 40 128 112 200" fill="none" stroke="currentColor" stroke-linecap="round" stroke-linejoin="round"></polyline></symbol>

  <symbol id="ArrowRight" xmlns="http://www.w3.org/2000/svg" fill="currentColor" viewBox="0 0 256 256"><rect width="256" height="256" fill="none"></rect><line x1="40" y1="128" x2="216" y2="128" fill="none" stroke="currentColor" stroke-linecap="round" stroke-linejoin="round"></line><polyline points="144 56 216 128 144 200" fill="none" stroke="currentColor" stroke-linecap="round" stroke-linejoin="round"></polyline></symbol>

  <symbol id="ArrowsClockwise" xmlns="http://www.w3.org/2000/svg" fill="none" viewBox="0 0 256 256"><rect width="256" height="256" fill="none"></rect><polyline points="176.2 99.7 224.2 99.7 224.2 51.7" fill="none" stroke="currentColor" stroke-linecap="round" stroke-linejoin="round" stroke-width="16"></polyline><path d="M65.8,65.8a87.9,87.9,0,0,1,124.4,0l34,33.9" fill="none" stroke="currentColor" stroke-linecap="round" stroke-linejoin="round" stroke-width="16"></path><polyline points="79.8 156.3 31.8 156.3 31.8 204.3" fill="none" stroke="currentColor" stroke-linecap="round" stroke-linejoin="round" stroke-width="16"></polyline><path d="M190.2,190.2a87.9,87.9,0,0,1-124.4,0l-34-33.9" fill="none" stroke="currentColor" stroke-linecap="round" stroke-linejoin="round" stroke-width="16"></path></symbol>

  <symbol id="ArrowSquareOut" xmlns="http://www.w3.org/2000/svg" fill="currentColor" viewBox="0 0 256 256"><rect width="256" height="256" fill="none"></rect><polyline points="216 100 216 40 156 40" fill="none" stroke="currentColor" stroke-linecap="round" stroke-linejoin="round"></polyline><line x1="144" y1="112" x2="216" y2="40" fill="none" stroke="currentColor" stroke-linecap="round" stroke-linejoin="round"></line><path d="M184,144v64a8,8,0,0,1-8,8H48a8,8,0,0,1-8-8V80a8,8,0,0,1,8-8h64" fill="none" stroke="currentColor" stroke-linecap="round" stroke-linejoin="round"></path></symbol>

  <symbol id="ArrowUpRight"  xmlns="http://www.w3.org/2000/svg" width="256" height="256" viewBox="0 0 256 256" fill="none"><path d="M13,0.25H3.25C2.83579,0.25,2.5,0.585786,2.5,1C2.5,1.41421,2.83579,1.75,3.25,1.75H11.1893L0.46967,12.4697C0.176777,12.7626,0.176777,13.2374,0.46967,13.5303C0.762563,13.8232,1.23744,13.8232,1.53033,13.5303L12.25,2.81066V10.75C12.25,11.1642,12.5858,11.5,13,11.5C13.4142,11.5,13.75,11.1642,13.75,10.75V1C13.75,0.793702,13.6667,0.606858,13.5319,0.471263C13.5314,0.470731,13.5309,0.4702,13.5303,0.46967C13.5298,0.46914,13.5293,0.46861,13.5287,0.468082C13.4572,0.396963,13.3749,0.343239,13.2871,0.306909C13.1987,0.270239,13.1017,0.25,13,0.25Z" fill="black"/></symbol>

  <symbol id="Bag" xmlns="http://www.w3.org/2000/svg" fill="none" viewBox="0 0 256 256"><rect width="256" height="256" fill="none"></rect><rect x="32" y="72" width="192" height="144" rx="8" fill="none" stroke="#000000" stroke-linecap="round" stroke-linejoin="round" stroke-width="16"></rect><path d="M88,104V72a40,40,0,0,1,80,0v32" fill="none" stroke="#000000" stroke-linecap="round" stroke-linejoin="round" stroke-width="16"></path></symbol>

  <symbol id="Bell" xmlns="http://www.w3.org/2000/svg" viewBox="0 0 256 256"><rect width="256" height="256" fill="none"></rect><path d="M56.2,104a71.9,71.9,0,0,1,72.3-72c39.6.3,71.3,33.2,71.3,72.9V112c0,35.8,7.5,56.6,14.1,68a8,8,0,0,1-6.9,12H49a8,8,0,0,1-6.9-12c6.6-11.4,14.1-32.2,14.1-68Z" fill="none" stroke="currentColor" stroke-linecap="round" stroke-linejoin="round"></path><path d="M96,192v8a32,32,0,0,0,64,0v-8" fill="none" stroke="currentColor" stroke-linecap="round" stroke-linejoin="round"></path></symbol>

  <symbol id="BellRinging" xmlns="http://www.w3.org/2000/svg" fill="currentColor" viewBox="0 0 256 256"><rect width="256" height="256" fill="none"></rect><path d="M56.20305,112a71.80121,71.80121,0,1,1,143.60186,0h0c0,35.81563,7.49325,56.59893,14.093,67.95814A7.999,7.999,0,0,1,207.01628,192H48.98365A7.99908,7.99908,0,0,1,42.103,179.95641c6.60328-11.35959,14.1-32.1426,14.1-67.95641Z" fill="none" stroke="currentColor" stroke-linecap="round" stroke-linejoin="round"></path><path d="M96,192v8a32,32,0,0,0,64,0v-8" fill="none" stroke="currentColor" stroke-linecap="round" stroke-linejoin="round"></path><path d="M183.43247,23.98832a104.46641,104.46641,0,0,1,37.91845,42.1156" fill="none" stroke="currentColor" stroke-linecap="round" stroke-linejoin="round"></path><path d="M34.64909,66.10391A104.46639,104.46639,0,0,1,72.56757,23.98829" fill="none" stroke="currentColor" stroke-linecap="round" stroke-linejoin="round"></path></symbol>

  <symbol id="Calendar" xmlns="http://www.w3.org/2000/svg" fill="currentColor" viewBox="0 0 256 256"><rect width="256" height="256" fill="none"></rect><rect x="40" y="40" width="176" height="176" rx="8"  stroke="currentColor" stroke-linecap="round" stroke-linejoin="round" fill="none"></rect><line x1="176" y1="24" x2="176" y2="56" fill="none" stroke="currentColor" stroke-linecap="round" stroke-linejoin="round"></line><line x1="80" y1="24" x2="80" y2="56" fill="none" stroke="currentColor" stroke-linecap="round" stroke-linejoin="round"></line><line x1="40" y1="88" x2="216" y2="88" fill="none" stroke="currentColor" stroke-linecap="round" stroke-linejoin="round"></line><path d="M92,127.99666h28l-16,20a16,16,0,1,1-11.30681,27.3206" fill="none" stroke="currentColor" stroke-linecap="round" stroke-linejoin="round"></path><polyline points="144 139.997 160 127.997 160 179.997" fill="none" stroke="currentColor" stroke-linecap="round" stroke-linejoin="round"></polyline></symbol>

  <symbol id="CaretDown" xmlns="http://www.w3.org/2000/svg" fill="currentColor" viewBox="0 0 256 256"><rect width="256" height="256" fill="none"></rect><polyline points="208 96 128 176 48 96" fill="none" stroke="currentColor" stroke-linecap="round" stroke-linejoin="round" stroke-width="24"></polyline></symbol>

  <symbol id="CaretLeft" xmlns="http://www.w3.org/2000/svg" fill="currentColor" viewBox="0 0 256 256"><rect width="256" height="256" fill="none"></rect><polyline points="160 208 80 128 160 48" fill="none" stroke="currentColor" stroke-linecap="round" stroke-linejoin="round"></polyline></symbol>

  <symbol id="CaretRight" xmlns="http://www.w3.org/2000/svg" fill="currentColor" viewBox="0 0 256 256"><rect width="256" height="256" fill="none"></rect><polyline points="96 48 176 128 96 208" fill="none" stroke="currentColor" stroke-linecap="round" stroke-linejoin="round"></polyline></symbol>

  <symbol id="CaretUp" xmlns="http://www.w3.org/2000/svg" fill="currentColor" viewBox="0 0 256 256"><rect width="256" height="256" fill="none"></rect><polyline points="48 160 128 80 208 160" fill="none" stroke="currentColor" stroke-linecap="round" stroke-linejoin="round"></polyline></symbol>

  <symbol id="Checked" xmlns="http://www.w3.org/2000/svg" fill="none" viewBox="0 0 19 18"><path d="M15.6875 5.0625L7.8125 12.9375L3.875 9" stroke="currentColor" stroke-width="1.5" stroke-linecap="round" stroke-linejoin="round"/></symbol>

  <symbol id="CircleWavyCheck" xmlns="http://www.w3.org/2000/svg" fill="currentColor" viewBox="0 0 256 256"><rect width="256" height="256" fill="none"></rect><path d="M54.46089,201.53911c-9.204-9.204-3.09935-28.52745-7.78412-39.85C41.82037,149.95168,24,140.50492,24,127.99963,24,115.4945,41.82047,106.048,46.67683,94.31079c4.68477-11.32253-1.41993-30.6459,7.78406-39.8499s28.52746-3.09935,39.85-7.78412C106.04832,41.82037,115.49508,24,128.00037,24c12.50513,0,21.95163,17.82047,33.68884,22.67683,11.32253,4.68477,30.6459-1.41993,39.8499,7.78406s3.09935,28.52746,7.78412,39.85C214.17963,106.04832,232,115.49508,232,128.00037c0,12.50513-17.82047,21.95163-22.67683,33.68884-4.68477,11.32253,1.41993,30.6459-7.78406,39.8499s-28.52745,3.09935-39.85,7.78412C149.95168,214.17963,140.50492,232,127.99963,232c-12.50513,0-21.95163-17.82047-33.68884-22.67683C82.98826,204.6384,63.66489,210.7431,54.46089,201.53911Z" fill="none" stroke="currentColor" stroke-linecap="round" stroke-linejoin="round"></path><polyline points="172 104 113.333 160 84 132" fill="none" stroke="currentColor" stroke-linecap="round" stroke-linejoin="round"></polyline></symbol>

  <symbol id="CircleWavyWarning" xmlns="http://www.w3.org/2000/svg" fill="currentColor" viewBox="0 0 256 256"><rect width="256" height="256" fill="none"></rect><path d="M54.46089,201.53911c-9.204-9.204-3.09935-28.52745-7.78412-39.85C41.82037,149.95168,24,140.50492,24,127.99963,24,115.4945,41.82047,106.048,46.67683,94.31079c4.68477-11.32253-1.41993-30.6459,7.78406-39.8499s28.52746-3.09935,39.85-7.78412C106.04832,41.82037,115.49508,24,128.00037,24c12.50513,0,21.95163,17.82047,33.68884,22.67683,11.32253,4.68477,30.6459-1.41993,39.8499,7.78406s3.09935,28.52746,7.78412,39.85C214.17963,106.04832,232,115.49508,232,128.00037c0,12.50513-17.82047,21.95163-22.67683,33.68884-4.68477,11.32253,1.41993,30.6459-7.78406,39.8499s-28.52745,3.09935-39.85,7.78412C149.95168,214.17963,140.50492,232,127.99963,232c-12.50513,0-21.95163-17.82047-33.68884-22.67683C82.98826,204.6384,63.66489,210.7431,54.46089,201.53911Z" fill="none" stroke="currentColor" stroke-linecap="round" stroke-linejoin="round"></path><line x1="127.99951" y1="80" x2="127.99951" y2="136" fill="none" stroke="currentColor" stroke-linecap="round" stroke-linejoin="round"></line><circle cx="127.99951" cy="172" r="8"></circle></symbol>

  <symbol id="ClockClockwise" xmlns="http://www.w3.org/2000/svg" viewBox="0 0 256 256"><path fill="none" d="M0 0h256v256H0z"/><path fill="none" stroke="currentColor" stroke-linecap="round" stroke-linejoin="round" stroke-width="18" d="M128 80v48m41.6 24L128 128m56.2-28.3h40v-40"/><path d="M190.2 190.2a88 88 0 1 1 0-124.4l34 33.9" fill="none" stroke="currentColor" stroke-linecap="round" stroke-linejoin="round" stroke-width="18"/></symbol>

  <symbol id="DotsThree" xmlns="http://www.w3.org/2000/svg" fill="currentColor" viewBox="0 0 256 256"><rect width="256" height="256" fill="none"></rect><circle cx="128" cy="128" r="12"></circle><circle cx="192" cy="128" r="12"></circle><circle cx="64" cy="128" r="12"></circle></symbol>

  <symbol id="Ellipsis" xmlns="http://www.w3.org/2000/svg" fill="none" viewBox="0 0 20 18" ><circle opacity="0.6" cx="2" cy="11" r="2" fill="currentColor"/><circle opacity="0.6" cx="10" cy="11" r="2" fill="currentColor"/><circle opacity="0.6" cx="18" cy="11" r="2" fill="currentColor"/></symbol>

  <symbol id="Envelop" xmlns="http://www.w3.org/2000/svg" fill="none" viewBox="0 0 256 256"><path fill="none" d="M0 0h256v256H0z"/><path stroke="currentColor" stroke-linecap="round" stroke-linejoin="round" d="m224 56-96 88-96-88"/><path d="M32 56h192v136a8 8 0 0 1-8 8H40a8 8 0 0 1-8-8V56h0Zm78.5 72-76 69.7m187 0-76-69.7" fill="none" stroke="currentColor" stroke-linecap="round" stroke-linejoin="round"/></symbol>

  <symbol id="FadersHorizontal" xmlns="http://www.w3.org/2000/svg" fill="currentColor" viewBox="0 0 256 256"><rect width="256" height="256" fill="none"></rect><line x1="135.99902" y1="171.99304" x2="39.99902" y2="171.99317" fill="none" stroke="currentColor" stroke-linecap="round" stroke-linejoin="round"></line><line x1="215.99902" y1="171.99317" x2="167.99902" y2="171.99304" fill="none" stroke="currentColor" stroke-linecap="round" stroke-linejoin="round"></line><line x1="71.99902" y1="83.99304" x2="39.99902" y2="83.99246" fill="none" stroke="currentColor" stroke-linecap="round" stroke-linejoin="round"></line><line x1="215.99902" y1="83.99246" x2="103.99902" y2="83.99304" fill="none" stroke="currentColor" stroke-linecap="round" stroke-linejoin="round"></line><line x1="103.99902" y1="59.99304" x2="103.99902" y2="107.99304" fill="none" stroke="currentColor" stroke-linecap="round" stroke-linejoin="round"></line><line x1="167.99902" y1="195.99304" x2="167.99902" y2="147.99304" fill="none" stroke="currentColor" stroke-linecap="round" stroke-linejoin="round"></line></symbol>

  <symbol id="Gift" xmlns="http://www.w3.org/2000/svg" fill="currentColor" viewBox="0 0 256 256"><rect width="256" height="256" fill="none"></rect><rect x="32" y="80" width="192" height="48" rx="7.99999" stroke="currentColor" stroke-linecap="round" stroke-linejoin="round" fill="none"></rect><path d="M208,128v72a8,8,0,0,1-8,8H56a8,8,0,0,1-8-8V128" fill="none" stroke="currentColor" stroke-linecap="round" stroke-linejoin="round"></path><line x1="128" y1="80" x2="128" y2="208" fill="none" stroke="currentColor" stroke-linecap="round" stroke-linejoin="round"></line><path d="M173.25483,68.68629C161.94113,80,128,80,128,80s0-33.94113,11.31371-45.25483a24,24,0,0,1,33.94112,33.94112Z" fill="none" stroke="currentColor" stroke-linecap="round" stroke-linejoin="round"></path><path d="M82.74517,68.68629C94.05887,80,128,80,128,80s0-33.94113-11.31371-45.25483A24,24,0,0,0,82.74517,68.68629Z" fill="none" stroke="currentColor" stroke-linecap="round" stroke-linejoin="round"></path></symbol>

  <symbol id="Headphones" xmlns="http://www.w3.org/2000/svg" fill="currentColor" viewBox="0 0 256 256"><rect width="256" height="256" fill="none"></rect><path d="M225.45581,136h-32a16,16,0,0,0-16,16v40a16,16,0,0,0,16,16h16a16,16,0,0,0,16-16V136A96.0001,96.0001,0,0,0,128.7279,40.0027,96.00009,96.00009,0,0,0,32,136v56a16,16,0,0,0,16,16H64a16,16,0,0,0,16-16V152a16,16,0,0,0-16-16H32" fill="none" stroke="currentColor" stroke-linecap="round" stroke-linejoin="round"></path></symbol>

  <symbol id="Heart" xmlns="http://www.w3.org/2000/svg" fill="currentColor" viewBox="0 0 256 256"> <rect width="256" height="256" fill="none"></rect> <path d="M128,216S28,160,28,92A52,52,0,0,1,128,72h0A52,52,0,0,1,228,92C228,160,128,216,128,216Z"  stroke="currentColor" stroke-linecap="round" stroke-linejoin="round"></path></symbol>

  <symbol id="House" xmlns="http://www.w3.org/2000/svg" fill="currentColor" viewBox="0 0 256 256"><rect width="256" height="256" fill="none"></rect><path d="M151.99414,207.99263v-48.001a8,8,0,0,0-8-8h-32a8,8,0,0,0-8,8v48.001a8,8,0,0,1-7.999,8l-47.99414.00632a8,8,0,0,1-8.001-8v-92.4604a8,8,0,0,1,2.61811-5.91906l79.9945-72.73477a8,8,0,0,1,10.76339-.00036l80.0055,72.73509A8,8,0,0,1,216,115.53887V207.999a8,8,0,0,1-8.001,8l-48.00586-.00632A8,8,0,0,1,151.99414,207.99263Z" fill="none" stroke="currentColor" stroke-linecap="round" stroke-linejoin="round"></path></symbol>

  <symbol id="Info" xmlns="http://www.w3.org/2000/svg" width="24" height="24" fill="none"><path fill-rule="evenodd" clip-rule="evenodd" d="M12 3.75a8.25 8.25 0 1 0 0 16.5 8.25 8.25 0 0 0 0-16.5ZM2.25 12c0-5.385 4.365-9.75 9.75-9.75s9.75 4.365 9.75 9.75-4.365 9.75-9.75 9.75S2.25 17.385 2.25 12Zm8.25-.75a.75.75 0 0 1 .75-.75H12a.75.75 0 0 1 .75.75v4.5a.75.75 0 0 1 0 1.5H12a.75.75 0 0 1-.75-.75V12a.75.75 0 0 1-.75-.75Zm2.438-3.375a1.125 1.125 0 1 1-2.25 0 1.125 1.125 0 0 1 2.25 0Z" fill="currentColor"/></symbol>

  <symbol id="List" xmlns="http://www.w3.org/2000/svg" fill="currentColor" viewBox="0 0 256 256"><rect width="256" height="256" fill="none"></rect><line x1="40" y1="128" x2="216" y2="128" stroke="currentColor" stroke-linecap="round" stroke-linejoin="round"></line><line x1="40" y1="64" x2="216" y2="64" stroke="currentColor" stroke-linecap="round" stroke-linejoin="round"></line><line x1="40" y1="192" x2="216" y2="192" stroke="currentColor" stroke-linecap="round" stroke-linejoin="round"></line></symbol>

  <symbol id="MagnifyingGlass" xmlns="http://www.w3.org/2000/svg" fill="currentColor" viewBox="0 0 256 256" data-testid="store-input-mobile-button"><rect width="256" height="256" fill="none"></rect><circle cx="116" cy="116" r="84" fill="none" stroke="currentColor" stroke-linecap="round" stroke-linejoin="round"></circle><line x1="175.39356" y1="175.40039" x2="223.99414" y2="224.00098" fill="none" stroke="currentColor" stroke-linecap="round" stroke-linejoin="round"></line></symbol>

  <symbol id="MapPin" xmlns="http://www.w3.org/2000/svg" viewBox="0 0 256 256"><path fill="none" d="M0 0h256v256H0z"/><circle cx="128" cy="104" r="32" fill="none" stroke="currentColor" stroke-linecap="round" stroke-linejoin="round" stroke-width="16"/><path d="M208 104c0 72-80 128-80 128s-80-56-80-128a80 80 0 0 1 160 0Z" fill="none" stroke="currentColor" stroke-linecap="round" stroke-linejoin="round" stroke-width="16"/></symbol>

  <symbol id="Medal" xmlns="http://www.w3.org/2000/svg" fill="currentColor" viewBox="0 0 256 256"><rect width="256" height="256" fill="none"></rect><circle cx="127.99414" cy="96" r="80" fill="none" stroke="currentColor" stroke-linecap="round" stroke-linejoin="round"></circle><circle cx="127.99414" cy="96" r="48" fill="none" stroke="currentColor" stroke-linecap="round" stroke-linejoin="round"></circle><polyline points="176 159.995 176 240 127.993 216 80 240 80 160.002" fill="none" stroke="currentColor" stroke-linecap="round" stroke-linejoin="round"></polyline></symbol>

  <symbol id="MinusCircle" xmlns="http://www.w3.org/2000/svg" fill="currentColor" viewBox="0 0 256 256"><rect width="256" height="256" fill="none"></rect><circle cx="128" cy="128" r="96" fill="none" stroke="currentColor" stroke-miterlimit="10"></circle><line x1="88" y1="128" x2="168" y2="128" fill="none" stroke="currentColor" stroke-linecap="round" stroke-linejoin="round"></line></symbol>

  <symbol id="Minus" xmlns="http://www.w3.org/2000/svg" fill="currentColor" viewBox="0 0 256 256"><rect width="256" height="256" fill="none"></rect><line x1="40" y1="128" x2="216" y2="128" fill="none" stroke="currentColor" stroke-linecap="round" stroke-linejoin="round"></line></symbol>

  <symbol id="Plus" xmlns="http://www.w3.org/2000/svg" fill="currentColor" viewBox="0 0 256 256"><rect width="256" height="256" fill="none"></rect><line x1="40" y1="128" x2="216" y2="128" fill="none" stroke="currentColor" stroke-linecap="round" stroke-linejoin="round"></line><line x1="128" y1="40" x2="128" y2="216" fill="none" stroke="currentColor" stroke-linecap="round" stroke-linejoin="round"></line></symbol>

  <symbol id="PlusCircle" xmlns="http://www.w3.org/2000/svg" fill="currentColor" viewBox="0 0 256 256"><rect width="256" height="256" fill="none"></rect><circle cx="128" cy="128" r="96" fill="none" stroke="currentColor" stroke-miterlimit="10"></circle><line x1="88" y1="128" x2="168" y2="128" fill="none" stroke="currentColor" stroke-linecap="round" stroke-linejoin="round"></line><line x1="128" y1="88" x2="128" y2="168" fill="none" stroke="currentColor" stroke-linecap="round" stroke-linejoin="round"></line></symbol>

  <symbol id="RocketLaunch" xmlns="http://www.w3.org/2000/svg" fill="currentColor" viewBox="0 0 256 256"><rect width="256" height="256" fill="none"></rect><path d="M195.88225,105.37258,128,173.25483,82.74517,128l67.88225-67.88225c25.70415-25.70415,51.40829-25.45342,62.37042-23.81787a7.96343,7.96343,0,0,1,6.70228,6.70228C221.33567,53.96429,221.5864,79.66843,195.88225,105.37258Z" fill="none" stroke="currentColor" stroke-linecap="round" stroke-linejoin="round"></path><path d="M184.56854,116.68629v64.56854a8,8,0,0,1-2.34314,5.65686l-32.34176,32.34176a8,8,0,0,1-13.5015-4.08793L128,173.25483" fill="none" stroke="currentColor" stroke-linecap="round" stroke-linejoin="round"></path><path d="M139.31371,71.43146H74.74517a8,8,0,0,0-5.65686,2.34314L36.74655,106.11636a8,8,0,0,0,4.08793,13.5015L82.74517,128" fill="none" stroke="currentColor" stroke-linecap="round" stroke-linejoin="round"></path><path d="M90.56048,192.38144c-15.05815,26.12823-53.07015,26.12823-53.07015,26.12823s0-38.012,26.12827-53.07018" fill="none" stroke="currentColor" stroke-linecap="round" stroke-linejoin="round"></path></symbol>

  <symbol id="Ruler" xmlns="http://www.w3.org/2000/svg" fill="none" viewBox="0 0 256 256"><rect width="256" height="256" fill="none"></rect><rect x="26.2" y="82.7" width="203.6" height="90.51" rx="8" transform="translate(-53 128) rotate(-45)" fill="none" stroke="#000000" stroke-linecap="round" stroke-linejoin="round" stroke-width="16"></rect><line x1="132" y1="60" x2="164" y2="92" fill="none" stroke="#000000" stroke-linecap="round" stroke-linejoin="round" stroke-width="16"></line><line x1="96" y1="96" x2="128" y2="128" fill="none" stroke="#000000" stroke-linecap="round" stroke-linejoin="round" stroke-width="16"></line><line x1="60" y1="132" x2="92" y2="164" fill="none" stroke="#000000" stroke-linecap="round" stroke-linejoin="round" stroke-width="16"></line></symbol>

  <symbol id="SealCheck" xmlns="http://www.w3.org/2000/svg" fill="currentColor" viewBox="0 0 256 256"><path d="M225.86,102.82c-3.77-3.94-7.67-8-9.14-11.57-1.36-3.27-1.44-8.69-1.52-13.94-.15-9.76-.31-20.82-8-28.51s-18.75-7.85-28.51-8c-5.25-.08-10.67-.16-13.94-1.52-3.56-1.47-7.63-5.37-11.57-9.14C146.28,23.51,138.44,16,128,16s-18.27,7.51-25.18,14.14c-3.94,3.77-8,7.67-11.57,9.14C88,40.64,82.56,40.72,77.31,40.8c-9.76.15-20.82.31-28.51,8S41,67.55,40.8,77.31c-.08,5.25-.16,10.67-1.52,13.94-1.47,3.56-5.37,7.63-9.14,11.57C23.51,109.72,16,117.56,16,128s7.51,18.27,14.14,25.18c3.77,3.94,7.67,8,9.14,11.57,1.36,3.27,1.44,8.69,1.52,13.94.15,9.76.31,20.82,8,28.51s18.75,7.85,28.51,8c5.25.08,10.67.16,13.94,1.52,3.56,1.47,7.63,5.37,11.57,9.14C109.72,232.49,117.56,240,128,240s18.27-7.51,25.18-14.14c3.94-3.77,8-7.67,11.57-9.14,3.27-1.36,8.69-1.44,13.94-1.52,9.76-.15,20.82-.31,28.51-8s7.85-18.75,8-28.51c.08-5.25.16-10.67,1.52-13.94,1.47-3.56,5.37-7.63,9.14-11.57C232.49,146.28,240,138.44,240,128S232.49,109.73,225.86,102.82Zm-11.55,39.29c-4.79,5-9.75,10.17-12.38,16.52-2.52,6.1-2.63,13.07-2.73,19.82-.1,7-.21,14.33-3.32,17.43s-10.39,3.22-17.43,3.32c-6.75.1-13.72.21-19.82,2.73-6.35,2.63-11.52,7.59-16.52,12.38S132,224,128,224s-9.15-4.92-14.11-9.69-10.17-9.75-16.52-12.38c-6.1-2.52-13.07-2.63-19.82-2.73-7-.1-14.33-.21-17.43-3.32s-3.22-10.39-3.32-17.43c-.1-6.75-.21-13.72-2.73-19.82-2.63-6.35-7.59-11.52-12.38-16.52S32,132,32,128s4.92-9.15,9.69-14.11,9.75-10.17,12.38-16.52c2.52-6.1,2.63-13.07,2.73-19.82.1-7,.21-14.33,3.32-17.43S70.51,56.9,77.55,56.8c6.75-.1,13.72-.21,19.82-2.73,6.35-2.63,11.52-7.59,16.52-12.38S124,32,128,32s9.15,4.92,14.11,9.69,10.17,9.75,16.52,12.38c6.1,2.52,13.07,2.63,19.82,2.73,7,.1,14.33.21,17.43,3.32s3.22,10.39,3.32,17.43c.1,6.75.21,13.72,2.73,19.82,2.63,6.35,7.59,11.52,12.38,16.52S224,124,224,128,219.08,137.15,214.31,142.11ZM173.66,98.34a8,8,0,0,1,0,11.32l-56,56a8,8,0,0,1-11.32,0l-24-24a8,8,0,0,1,11.32-11.32L112,148.69l50.34-50.35A8,8,0,0,1,173.66,98.34Z"></path></symbol>

  <symbol id="SealWarning" xmlns="http://www.w3.org/2000/svg" fill="currentColor" viewBox="0 0 256 256"><path d="M225.86,102.82c-3.77-3.94-7.67-8-9.14-11.57-1.36-3.27-1.44-8.69-1.52-13.94-.15-9.76-.31-20.82-8-28.51s-18.75-7.85-28.51-8c-5.25-.08-10.67-.16-13.94-1.52-3.56-1.47-7.63-5.37-11.57-9.14C146.28,23.51,138.44,16,128,16s-18.27,7.51-25.18,14.14c-3.94,3.77-8,7.67-11.57,9.14C88,40.64,82.56,40.72,77.31,40.8c-9.76.15-20.82.31-28.51,8S41,67.55,40.8,77.31c-.08,5.25-.16,10.67-1.52,13.94-1.47,3.56-5.37,7.63-9.14,11.57C23.51,109.72,16,117.56,16,128s7.51,18.27,14.14,25.18c3.77,3.94,7.67,8,9.14,11.57,1.36,3.27,1.44,8.69,1.52,13.94.15,9.76.31,20.82,8,28.51s18.75,7.85,28.51,8c5.25.08,10.67.16,13.94,1.52,3.56,1.47,7.63,5.37,11.57,9.14C109.72,232.49,117.56,240,128,240s18.27-7.51,25.18-14.14c3.94-3.77,8-7.67,11.57-9.14,3.27-1.36,8.69-1.44,13.94-1.52,9.76-.15,20.82-.31,28.51-8s7.85-18.75,8-28.51c.08-5.25.16-10.67,1.52-13.94,1.47-3.56,5.37-7.63,9.14-11.57C232.49,146.28,240,138.44,240,128S232.49,109.73,225.86,102.82Zm-11.55,39.29c-4.79,5-9.75,10.17-12.38,16.52-2.52,6.1-2.63,13.07-2.73,19.82-.1,7-.21,14.33-3.32,17.43s-10.39,3.22-17.43,3.32c-6.75.1-13.72.21-19.82,2.73-6.35,2.63-11.52,7.59-16.52,12.38S132,224,128,224s-9.15-4.92-14.11-9.69-10.17-9.75-16.52-12.38c-6.1-2.52-13.07-2.63-19.82-2.73-7-.1-14.33-.21-17.43-3.32s-3.22-10.39-3.32-17.43c-.1-6.75-.21-13.72-2.73-19.82-2.63-6.35-7.59-11.52-12.38-16.52S32,132,32,128s4.92-9.15,9.69-14.11,9.75-10.17,12.38-16.52c2.52-6.1,2.63-13.07,2.73-19.82.1-7,.21-14.33,3.32-17.43S70.51,56.9,77.55,56.8c6.75-.1,13.72-.21,19.82-2.73,6.35-2.63,11.52-7.59,16.52-12.38S124,32,128,32s9.15,4.92,14.11,9.69,10.17,9.75,16.52,12.38c6.1,2.52,13.07,2.63,19.82,2.73,7,.1,14.33.21,17.43,3.32s3.22,10.39,3.32,17.43c.1,6.75.21,13.72,2.73,19.82,2.63,6.35,7.59,11.52,12.38,16.52S224,124,224,128,219.08,137.15,214.31,142.11ZM120,136V80a8,8,0,0,1,16,0v56a8,8,0,0,1-16,0Zm20,36a12,12,0,1,1-12-12A12,12,0,0,1,140,172Z"></path></symbol>

  <symbol id="ShieldCheck" xmlns="http://www.w3.org/2000/svg" fill="currentColor" viewBox="0 0 256 256"><rect width="256" height="256" fill="none"></rect><path d="M40,114.66667V56a8,8,0,0,1,8-8H208a8,8,0,0,1,8,8v58.66667c0,84.01533-71.306,111.85016-85.5438,116.57058a7.54755,7.54755,0,0,1-4.9124,0C111.306,226.51683,40,198.682,40,114.66667Z" fill="none" stroke="currentColor" stroke-linecap="round" stroke-linejoin="round"></path><polyline points="172 104 113.333 160 84 132" fill="none" stroke="currentColor" stroke-linecap="round" stroke-linejoin="round"></polyline></symbol>

  <symbol id="ShoppingCart" xmlns="http://www.w3.org/2000/svg" fill="currentColor" viewBox="0 0 256 256"><rect width="256" height="256" fill="none"></rect><path d="M184,184H69.81818L41.92162,30.56892A8,8,0,0,0,34.05066,24H16" fill="none" stroke="currentColor" stroke-linecap="round" stroke-linejoin="round"></path><circle cx="80" cy="204" r="20" fill="none" stroke="currentColor" stroke-linecap="round" stroke-linejoin="round"></circle><circle cx="184" cy="204" r="20" fill="none" stroke="currentColor" stroke-linecap="round" stroke-linejoin="round"></circle><path d="M62.54543,144H188.10132a16,16,0,0,0,15.74192-13.13783L216,64H48" fill="none" stroke="currentColor" stroke-linecap="round" stroke-linejoin="round"></path></symbol>

  <symbol id="Star" xmlns="http://www.w3.org/2000/svg" viewBox="0 0 256 256"> <rect width="256" height="256" fill="none"></rect> <path d="M239.2,97.4A16.4,16.4,0,0,0,224.6,86l-59.4-4.1-22-55.5A16.4,16.4,0,0,0,128,16h0a16.4,16.4,0,0,0-15.2,10.4L90.4,82.2,31.4,86A16.5,16.5,0,0,0,16.8,97.4,16.8,16.8,0,0,0,22,115.5l45.4,38.4L53.9,207a18.5,18.5,0,0,0,7,19.6,18,18,0,0,0,20.1.6l46.9-29.7h.2l50.5,31.9a16.1,16.1,0,0,0,8.7,2.6,16.5,16.5,0,0,0,15.8-20.8l-14.3-58.1L234,115.5A16.8,16.8,0,0,0,239.2,97.4Z" stroke="currentColor" stroke-linecap="round" stroke-linejoin="round"></path></symbol>

  <symbol id="Storefront" xmlns="http://www.w3.org/2000/svg" fill="currentColor" viewBox="0 0 256 256"><rect width="256" height="256" fill="none"></rect><path d="M48,139.58816V208a8,8,0,0,0,8,8H200a8,8,0,0,0,8-8V139.58972" fill="none" stroke="currentColor" stroke-linecap="round" stroke-linejoin="round"></path><path d="M54.03441,40H201.96559a8,8,0,0,1,7.69219,5.80223L224,96H32L46.34222,45.80223A8,8,0,0,1,54.03441,40Z" fill="none" stroke="currentColor" stroke-linecap="round" stroke-linejoin="round"></path><path d="M96,96v16a32,32,0,0,1-64,0V96" fill="none" stroke="currentColor" stroke-linecap="round" stroke-linejoin="round"></path><path d="M160,96v16a32,32,0,0,1-64,0V96" fill="none" stroke="currentColor" stroke-linecap="round" stroke-linejoin="round"></path><path d="M224,96v16a32,32,0,0,1-64,0V96" fill="none" stroke="currentColor" stroke-linecap="round" stroke-linejoin="round"></path></symbol>

  <symbol id="Tag" xmlns="http://www.w3.org/2000/svg" fill="none" viewBox="0 0 256 256"><path fill="none" d="M0 0h256v256H0z"/><path d="M122.7 25.9 42 42l-16.1 80.7a8 8 0 0 0 2.2 7.2l104.4 104.4a7.9 7.9 0 0 0 11.3 0l90.5-90.5a7.9 7.9 0 0 0 0-11.3L129.9 28.1a8 8 0 0 0-7.2-2.2Z" stroke="currentColor" stroke-linecap="round" stroke-linejoin="round" stroke-width="16"/><circle cx="84" cy="84" r="12" fill="currentColor"/></symbol>

  <symbol id="Truck" xmlns="http://www.w3.org/2000/svg" fill="currentColor" viewBox="0 0 256 256"><rect width="256" height="256" fill="none"></rect><path d="M240,120H176V80h42.58374a8,8,0,0,1,7.42781,5.02887Z" fill="none" stroke="currentColor" stroke-linecap="round" stroke-linejoin="round"></path><line x1="16" y1="144" x2="176" y2="144" fill="none" stroke="currentColor" stroke-linecap="round" stroke-linejoin="round"></line><circle cx="188" cy="192" r="24" fill="none" stroke="currentColor" stroke-miterlimit="10"></circle><circle cx="68" cy="192" r="24" fill="none" stroke="currentColor" stroke-miterlimit="10"></circle><line x1="164" y1="192" x2="92" y2="192" fill="none" stroke="currentColor" stroke-linecap="round" stroke-linejoin="round"></line><path d="M44,192H24a8,8,0,0,1-8-8V72a8,8,0,0,1,8-8H176V171.21508" fill="none" stroke="currentColor" stroke-linecap="round" stroke-linejoin="round"></path><path d="M176,171.21508V120h64v64a8,8,0,0,1-8,8H212" fill="none" stroke="currentColor" stroke-linecap="round" stroke-linejoin="round"></path></symbol>
  <symbol id="User" xmlns="http://www.w3.org/2000/svg" fill="currentColor" viewBox="0 0 256 256"><rect width="256" height="256" fill="none"></rect><circle cx="128" cy="96" r="64" fill="none" stroke="currentColor" stroke-linecap="round" stroke-linejoin="round"></circle><path d="M30.989,215.99064a112.03731,112.03731,0,0,1,194.02311.002" fill="none" stroke="currentColor" stroke-linecap="round" stroke-linejoin="round"></path></symbol>

  <symbol id="X" xmlns="http://www.w3.org/2000/svg" fill="currentColor" viewBox="0 0 256 256"><rect width="256" height="256" fill="none"></rect><line x1="200" y1="56" x2="56" y2="200" fill="none" stroke="currentColor" stroke-linecap="round" stroke-linejoin="round"></line><line x1="200" y1="200" x2="56" y2="56" fill="none" stroke="currentColor" stroke-linecap="round" stroke-linejoin="round"></line></symbol>

  <symbol id="XCircle" xmlns="http://www.w3.org/2000/svg" fill="currentColor" viewBox="0 0 256 256"><rect width="256" height="256" fill="none"></rect><circle cx="128" cy="128" r="96" fill="none" stroke="currentColor" stroke-miterlimit="10"></circle><line x1="160" y1="96" x2="96" y2="160" fill="none" stroke="currentColor" stroke-linecap="round" stroke-linejoin="round"></line><line x1="160" y1="160" x2="96" y2="96" fill="none" stroke="currentColor" stroke-linecap="round" stroke-linejoin="round"></line></symbol>


  <!-- Social -->
  <symbol id="Twitter" xmlns="http://www.w3.org/2000/svg" fill="currentColor" viewBox="0 0 32 32"><path d="M3.97204 3.72754L14.0811 17.2655L3.9082 28.2725H6.19772L15.1041 18.6358L22.3002 28.2725H30.0915L19.4136 13.973L28.8825 3.72754H26.593L18.3907 12.6028L11.7633 3.72754H3.97204ZM7.33894 5.41665H10.9183L26.7241 26.5831H23.1447L7.33894 5.41665Z" fill="currentColor"/></symbol>

  <symbol id="Facebook" xmlns="http://www.w3.org/2000/svg" fill="none" viewBox="0 0 24 24"> <path fillRule="evenodd" clipRule="evenodd" d="M0 12C0 17.9333 4.33333 22.8667 10 23.8667L10.0669 23.8132C10.0446 23.8088 10.0223 23.8045 10 23.8V15.3333H7V12H10V9.33333C10 6.33333 11.9333 4.66667 14.6667 4.66667C15.5333 4.66667 16.4667 4.8 17.3333 4.93333V8H15.8C14.3333 8 14 8.73333 14 9.66667V12H17.2L16.6667 15.3333H14V23.8C13.9777 23.8045 13.9554 23.8088 13.9331 23.8132L14 23.8667C19.6667 22.8667 24 17.9333 24 12C24 5.4 18.6 0 12 0C5.4 0 0 5.4 0 12Z" fill="currentColor" /> </symbol>

  <symbol id="Pinterest" xmlns="http://www.w3.org/2000/svg" fill="none" viewBox="0 0 24 24"> <path d="M13.6372 0.111996C10.7664 -0.282916 7.84967 0.374216 5.42555 1.96205C3.00144 3.54988 1.23369 5.96118 0.448715 8.75069C-0.336255 11.5402 -0.0854291 14.5195 1.15488 17.1385C2.39519 19.7575 4.54121 21.8393 7.19668 22.9995C7.12486 22.0779 7.19078 21.1506 7.39224 20.2484C7.61421 19.2417 8.9472 13.6938 8.9472 13.6938C8.68176 13.0988 8.54911 12.4532 8.55846 11.8017C8.55846 10.02 9.58669 8.69062 10.8657 8.69062C11.0955 8.68728 11.3233 8.73345 11.5336 8.826C11.7439 8.91855 11.9319 9.0553 12.0846 9.22696C12.2374 9.39863 12.3514 9.60117 12.4189 9.82083C12.4864 10.0405 12.5058 10.2721 12.4758 10.4999C12.4758 11.5798 11.7823 13.2139 11.42 14.7473C11.3484 15.0285 11.3438 15.3226 11.4067 15.6059C11.4696 15.8891 11.5982 16.1537 11.7821 16.3782C11.9659 16.6027 12.2 16.7809 12.4653 16.8983C12.7307 17.0158 13.0199 17.0693 13.3097 17.0545C15.5869 17.0545 17.1131 14.1378 17.1131 10.6943C17.1131 8.05472 15.365 6.07744 12.1423 6.07744C11.3713 6.04748 10.6022 6.17453 9.88176 6.45089C9.16134 6.72724 8.5046 7.14712 7.95141 7.68505C7.39823 8.22297 6.96014 8.86772 6.66375 9.58013C6.36736 10.2925 6.21884 11.0578 6.22723 11.8293C6.19288 12.6852 6.469 13.5246 7.00471 14.1929C7.10481 14.2677 7.1779 14.3729 7.21296 14.4928C7.24802 14.6127 7.24315 14.7408 7.19907 14.8576C7.14388 15.0784 7.00471 15.6051 6.94951 15.7983C6.93803 15.8638 6.91133 15.9257 6.87155 15.979C6.83178 16.0323 6.78004 16.0755 6.72051 16.1052C6.66098 16.1348 6.59531 16.1501 6.52881 16.1497C6.4623 16.1493 6.39681 16.1333 6.33761 16.103C4.67708 15.4383 3.8948 13.611 3.8948 11.5246C3.8948 8.10872 6.75515 4.01977 12.4782 4.01977C17.0327 4.01977 20.061 7.35164 20.061 10.9151C20.061 15.6051 17.449 19.1314 13.5893 19.1314C13.0124 19.1498 12.4402 19.0225 11.9255 18.7612C11.4109 18.4999 10.9704 18.113 10.6449 17.6364C10.6449 17.6364 9.95143 20.4151 9.81466 20.9407C9.53545 21.8486 9.12346 22.7101 8.59205 23.4975C9.69947 23.8334 10.8501 24.0014 12.0067 23.9966C13.5827 23.9978 15.1436 23.6882 16.5998 23.0854C18.056 22.4826 19.379 21.5985 20.493 20.4837C21.6071 19.3688 22.4903 18.0452 23.092 16.5886C23.6938 15.132 24.0024 13.5709 24 11.9949C23.9985 9.09735 22.9487 6.2982 21.0444 4.11429C19.1401 1.93038 16.51 0.509209 13.6396 0.113195L13.6372 0.111996Z" fill="currentColor" /></symbol>

  <symbol id="Instagram" xmlns="http://www.w3.org/2000/svg" fill="none" viewBox="0 0 24 24"> <path d="M12.0005 0.363647C8.84036 0.363647 8.44377 0.377466 7.20259 0.433951C5.96384 0.490678 5.11829 0.686799 4.37843 0.974557C3.61312 1.27177 2.96393 1.66934 2.31716 2.31637C1.66991 2.96316 1.27235 3.61237 0.974173 4.37746C0.685697 5.11759 0.48934 5.9634 0.433584 7.20171C0.37807 8.44292 0.363525 8.83977 0.363525 12C0.363525 15.1603 0.377586 15.5556 0.433827 16.7969C0.490794 18.0356 0.68691 18.8812 0.974416 19.6211C1.27186 20.3864 1.66943 21.0356 2.31644 21.6824C2.96296 22.3297 3.61215 22.7283 4.37698 23.0255C5.11732 23.3132 5.96311 23.5093 7.20162 23.5661C8.4428 23.6226 8.83915 23.6364 11.9991 23.6364C15.1594 23.6364 15.5548 23.6226 16.796 23.5661C18.0347 23.5093 18.8813 23.3132 19.6216 23.0255C20.3867 22.7283 21.0349 22.3297 21.6814 21.6824C22.3287 21.0356 22.7262 20.3864 23.0244 19.6213C23.3105 18.8812 23.5068 18.0354 23.565 16.7971C23.6208 15.5559 23.6353 15.1603 23.6353 12C23.6353 8.83977 23.6208 8.44316 23.565 7.20195C23.5068 5.96316 23.3105 5.11759 23.0244 4.37771C22.7262 3.61237 22.3287 2.96316 21.6814 2.31637C21.0342 1.6691 20.3869 1.27153 19.6209 0.974557C18.8791 0.686799 18.0331 0.490678 16.7943 0.433951C15.5531 0.377466 15.158 0.363647 11.9969 0.363647H12.0005ZM10.9567 2.46062C11.2665 2.46013 11.6122 2.46062 12.0005 2.46062C15.1073 2.46062 15.4756 2.47177 16.7024 2.52753C17.8369 2.5794 18.4527 2.76898 18.8628 2.92825C19.4059 3.13916 19.793 3.39128 20.2 3.79856C20.6073 4.20583 20.8594 4.59371 21.0708 5.13674C21.23 5.54643 21.4199 6.16219 21.4715 7.29674C21.5272 8.5234 21.5394 8.89189 21.5394 11.9973C21.5394 15.1028 21.5272 15.4713 21.4715 16.6979C21.4196 17.8325 21.23 18.4483 21.0708 18.8579C20.8599 19.401 20.6073 19.7876 20.2 20.1947C19.7928 20.6019 19.4061 20.8541 18.8628 21.065C18.4532 21.225 17.8369 21.4141 16.7024 21.4659C15.4758 21.5217 15.1073 21.5338 12.0005 21.5338C8.89345 21.5338 8.52522 21.5217 7.29859 21.4659C6.16408 21.4136 5.54834 21.224 5.13793 21.0647C4.59491 20.8538 4.20705 20.6017 3.79978 20.1944C3.39252 19.7872 3.14041 19.4003 2.92902 18.857C2.76976 18.4473 2.57994 17.8315 2.52831 16.697C2.47255 15.4703 2.4614 15.1018 2.4614 11.9944C2.4614 8.88704 2.47255 8.5205 2.52831 7.29383C2.58019 6.15928 2.76976 5.54353 2.92902 5.13334C3.13993 4.59031 3.39252 4.20243 3.79978 3.79516C4.20705 3.38789 4.59491 3.13577 5.13793 2.92437C5.5481 2.76437 6.16408 2.57528 7.29859 2.52316C8.37201 2.47468 8.788 2.46013 10.9567 2.45771V2.46062ZM18.2117 4.39274C17.4408 4.39274 16.8154 5.01746 16.8154 5.78862C16.8154 6.55953 17.4408 7.18498 18.2117 7.18498C18.9826 7.18498 19.608 6.55953 19.608 5.78862C19.608 5.01771 18.9826 4.39225 18.2117 4.39225V4.39274ZM12.0005 6.02425C8.70048 6.02425 6.02493 8.69989 6.02493 12C6.02493 15.3001 8.70048 17.9746 12.0005 17.9746C15.3005 17.9746 17.9751 15.3001 17.9751 12C17.9751 8.69989 15.3003 6.02425 12.0003 6.02425H12.0005ZM12.0005 8.12122C14.1425 8.12122 15.8792 9.85771 15.8792 12C15.8792 14.1421 14.1425 15.8788 12.0005 15.8788C9.85827 15.8788 8.12184 14.1421 8.12184 12C8.12184 9.85771 9.85827 8.12122 12.0005 8.12122Z" fill="currentColor" /></symbol>

  <!-- Payment Methods -->
  <symbol id="Amex" xmlns="http://www.w3.org/2000/svg" fill="none" viewBox="0 0 24 24"><path fill-rule="evenodd" clip-rule="evenodd" d="M3 3H21V21H3V3Z" fill="#016FD0"/><path fill-rule="evenodd" clip-rule="evenodd" d="M9.52112 18.1527V11.7027L21.0001 11.7127V13.4947L19.6731 14.9127L21.0001 16.3437V18.1627H18.8821L17.7561 16.9207L16.6381 18.1677L9.52112 18.1527Z" fill="white"/><path fill-rule="evenodd" clip-rule="evenodd" d="M10.0564 5.97772H12.8234L13.7954 8.18472V5.97772H17.2114L17.8004 7.63172L18.3914 5.97772H21.0004V12.4277H7.21436L10.0564 5.97772Z" fill="white"/><path fill-rule="evenodd" clip-rule="evenodd" d="M10.5799 6.6778L8.34692 11.7068H9.87892L10.2999 10.6998H12.5829L13.0039 11.7068L15.9068 11.7069V8.25287L17.1918 11.7069H18.4088L19.6678 8.26387V11.7189L21.0008 11.7069V6.67786H18.9288L17.8138 9.77687L16.7058 6.68586L14.5528 6.67786V11.6591L12.3489 6.6778H10.5799ZM10.7719 9.5708L11.4419 7.9698L12.1109 9.5708H10.7719Z" fill="#016FD0"/><path fill-rule="evenodd" clip-rule="evenodd" d="M10.2866 12.4118V17.4448H16.3105L17.7645 15.8338L19.2325 17.4448H20.9995V17.3728L18.6885 14.9248L20.9995 12.4518V12.4118H19.2505L17.8035 14.0068L16.3605 12.4118H10.2866ZM14.5546 12.4352V13.5708H11.6686V14.3578H14.4855V15.4978H11.6686V16.2708H14.5546V17.4213L16.8945 14.9248L14.5546 12.4352Z" fill="#016FD0"/></symbol>

  <symbol id="ApplePay" xmlns="http://www.w3.org/2000/svg" fill="none" viewBox="0 0 24 24"><path d="M4.38525 8.28925C4.10397 8.62702 3.65392 8.89343 3.20387 8.85538C3.14761 8.39867 3.36795 7.91342 3.62579 7.6137C3.90707 7.26641 4.39932 7.01903 4.7978 7C4.84468 7.47574 4.66185 7.94196 4.38525 8.28925ZM4.79311 8.94577C4.14148 8.90771 3.5836 9.3216 3.27419 9.3216C2.96009 9.3216 2.4866 8.9648 1.97091 8.97431C1.30052 8.98382 0.677016 9.36917 0.334789 9.98287C-0.368417 11.2103 0.151956 13.0276 0.831721 14.0266C1.16457 14.5214 1.56305 15.0637 2.08811 15.0447C2.58505 15.0257 2.78194 14.7165 3.38201 14.7165C3.98677 14.7165 4.16023 15.0447 4.68529 15.0352C5.2291 15.0257 5.57133 14.5404 5.90418 14.0457C6.28391 13.4843 6.43861 12.9372 6.44799 12.9087C6.43861 12.8991 5.39787 12.4948 5.38849 11.2769C5.37912 10.2588 6.2089 9.77355 6.2464 9.745C5.7776 9.04091 5.04627 8.9648 4.79311 8.94577ZM8.55761 7.56613V14.9829H9.69211V12.4472H11.2626C12.6971 12.4472 13.7051 11.4481 13.7051 10.0019C13.7051 8.55566 12.7159 7.56613 11.3001 7.56613H8.55761ZM9.69211 8.53663H11.0001C11.9846 8.53663 12.5471 9.06946 12.5471 10.0067C12.5471 10.9439 11.9846 11.4814 10.9954 11.4814H9.69211V8.53663ZM15.7772 15.04C16.4898 15.04 17.1508 14.6736 17.4508 14.0932H17.4743V14.9829H18.5244V11.2912C18.5244 10.2207 17.6805 9.53092 16.3819 9.53092C15.1771 9.53092 14.2864 10.2303 14.2536 11.1912H15.2756C15.3599 10.7345 15.7772 10.4348 16.3491 10.4348C17.043 10.4348 17.4321 10.7631 17.4321 11.3673V11.7764L16.0163 11.862C14.6989 11.9429 13.9864 12.49 13.9864 13.4415C13.9864 14.4025 14.7224 15.04 15.7772 15.04ZM16.0819 14.1598C15.4771 14.1598 15.0927 13.8649 15.0927 13.4129C15.0927 12.9467 15.4631 12.6755 16.171 12.6327L17.4321 12.5519V12.9705C17.4321 13.6651 16.8507 14.1598 16.0819 14.1598ZM19.9261 17C21.0325 17 21.5528 16.5718 22.0076 15.2731L24 9.60228H22.8467L21.5107 13.9838H21.4872L20.1511 9.60228H18.965L20.8871 15.0019L20.784 15.3302C20.6105 15.8868 20.3293 16.1009 19.8276 16.1009C19.7386 16.1009 19.5651 16.0913 19.4948 16.0818V16.9715C19.5604 16.9905 19.8417 17 19.9261 17Z" fill="black"/></symbol>

  <symbol id="EloCard" xmlns="http://www.w3.org/2000/svg" fill="none" viewBox="0 0 24 24"><path d="M17.3316 13.0626C16.835 15.4795 14.6774 17.2951 12.0913 17.2951C11.4978 17.2951 10.9264 17.2004 10.3937 17.0232L9.20605 20.5384C10.1122 20.8378 11.0824 21 12.0915 21C16.4861 21 20.1535 17.9126 20.9983 13.807L17.3316 13.0626Z" fill="#EF4123"/><path d="M6.06825 18.7425L8.54801 15.9667C7.44107 14.9958 6.74267 13.5788 6.74267 12C6.74267 10.4225 7.44012 9.00615 8.54635 8.03639L6.06611 5.26038C4.18623 6.90915 3 9.3178 3 12C3 14.6839 4.18671 17.0933 6.06825 18.7425Z" fill="#00A4E0"/><path d="M10.3957 6.9761C10.9286 6.79983 11.4984 6.70511 12.0916 6.70511C14.6784 6.70511 16.8382 8.52429 17.3329 10.9423L20.9999 10.2017C20.1586 6.0926 16.4904 3 12.0916 3C11.0837 3 10.1153 3.16264 9.20947 3.46232L10.3957 6.9761Z" fill="#FFCB05"/>
  </symbol>

  <symbol id="Diners" xmlns="http://www.w3.org/2000/svg" fill="none" viewBox="0 0 24 24"><path d="M10.707 20.5967C15.3156 20.5967 19.0515 16.8152 19.0515 12.1504C19.0515 7.48565 15.3156 3.7041 10.707 3.7041C6.0985 3.7041 2.36255 7.48565 2.36255 12.1504C2.36255 16.8152 6.0985 20.5967 10.707 20.5967Z" fill="white"/><path d="M10.7201 20.75C5.93697 20.7718 2 16.8524 2 12.0765C2 6.85924 5.93697 3.25 10.7201 3.25H12.9605C17.6875 3.25 22 6.85487 22 12.0765C22 16.848 17.6875 20.75 12.9605 20.75H10.7201ZM10.7373 3.97534C6.36434 3.97534 2.82452 7.56273 2.82452 11.9847C2.82452 16.4067 6.36434 19.9941 10.7373 19.9941C15.1103 19.9941 18.6501 16.4067 18.6501 11.9847C18.6501 7.56273 15.1103 3.97534 10.7373 3.97534ZM8.94151 16.7213V7.24813C7.05936 7.98221 5.72545 9.82179 5.72113 11.9847C5.72545 14.1476 7.06367 15.9916 8.94151 16.7213ZM15.7535 11.9847C15.7492 9.82179 14.4153 7.97784 12.5331 7.24376V16.7213C14.4153 15.9916 15.7535 14.1476 15.7535 11.9847Z" fill="#004A98"/></symbol>

  <symbol id="GooglePay" xmlns="http://www.w3.org/2000/svg" fill="none" viewBox="0 0 24 24"><g clip-path="url(#clip0_658_326)"><path d="M11.3443 11.6503V14.4395H10.4446V7.5415H12.7839C13.3537 7.5415 13.8936 7.75144 14.3135 8.14133C14.7334 8.50123 14.9433 9.04107 14.9433 9.61091C14.9433 10.1807 14.7334 10.6906 14.3135 11.0805C13.8936 11.4704 13.3837 11.6803 12.7839 11.6803L11.3443 11.6503ZM11.3443 8.38126V10.7806H12.8439C13.1738 10.7806 13.5037 10.6606 13.7136 10.4207C14.1935 9.97081 14.1935 9.22102 13.7436 8.77115L13.7136 8.74116C13.4737 8.50123 13.1738 8.35127 12.8439 8.38126H11.3443Z" fill="#5F6368"/><path d="M17.0128 9.58105C17.6726 9.58105 18.1824 9.761 18.5723 10.1209C18.9622 10.4808 19.1422 10.9607 19.1422 11.5605V14.4397H18.3024V13.7799H18.2724C17.9125 14.3197 17.4027 14.5896 16.8028 14.5896C16.293 14.5896 15.8431 14.4397 15.4832 14.1397C15.1533 13.8398 14.9434 13.42 14.9434 12.9701C14.9434 12.4902 15.1233 12.1003 15.4832 11.8004C15.8431 11.5005 16.353 11.3805 16.9528 11.3805C17.4926 11.3805 17.9125 11.4705 18.2424 11.6805V11.4705C18.2424 11.1706 18.1224 10.8707 17.8825 10.6907C17.6426 10.4808 17.3427 10.3608 17.0128 10.3608C16.5029 10.3608 16.113 10.5708 15.8431 10.9907L15.0633 10.5108C15.5432 9.88097 16.173 9.58105 17.0128 9.58105ZM15.8731 13.0001C15.8731 13.24 15.9931 13.4499 16.173 13.5699C16.3829 13.7199 16.6229 13.8098 16.8628 13.8098C17.2227 13.8098 17.5826 13.6599 17.8525 13.39C18.1524 13.12 18.3024 12.7901 18.3024 12.4302C18.0325 12.2203 17.6426 12.1003 17.1327 12.1003C16.7728 12.1003 16.4729 12.1903 16.233 12.3703C15.9931 12.5202 15.8731 12.7302 15.8731 13.0001Z" fill="#5F6368"/><path d="M23.9999 9.7312L21.0308 16.5393H20.131L21.2407 14.1699L19.2913 9.76119H20.251L21.6606 13.1502H21.6906L23.0702 9.76119H23.9999V9.7312Z" fill="#5F6368"/><path d="M7.77571 11.0506C7.77571 10.7806 7.74571 10.5107 7.71572 10.2408H3.9668V11.7703H6.09619C6.00621 12.2502 5.73629 12.7001 5.31641 12.97V13.9597H6.60604C7.35583 13.2699 7.77571 12.2502 7.77571 11.0506Z" fill="#4285F4"/><path d="M3.96599 14.919C5.04568 14.919 5.94542 14.5591 6.60523 13.9593L5.3156 12.9696C4.95571 13.2095 4.50583 13.3595 3.96599 13.3595C2.94628 13.3595 2.04654 12.6697 1.74662 11.71H0.427002V12.7297C1.1168 14.0793 2.46642 14.919 3.96599 14.919Z" fill="#34A853"/><path d="M1.747 11.71C1.56705 11.2301 1.56705 10.6903 1.747 10.1804V9.16071H0.427377C-0.142459 10.2704 -0.142459 11.59 0.427377 12.7297L1.747 11.71Z" fill="#FBBC04"/><path d="M3.96603 8.56117C4.53586 8.56117 5.07571 8.77111 5.49559 9.16099L6.63526 8.02132C5.91547 7.36151 4.95574 6.97162 3.99602 7.00161C2.49645 7.00161 1.11684 7.84137 0.457031 9.19099L1.77665 10.2107C2.04658 9.25097 2.94632 8.56117 3.96603 8.56117Z" fill="#EA4335"/></g><defs><clipPath id="clip0_658_326"><rect width="24" height="24" fill="white"/></clipPath></defs></symbol>

  <symbol id="Mastercard" xmlns="http://www.w3.org/2000/svg" fill="none" viewBox="0 0 24 24"><path d="M14.9753 6.67865H9.02637V17.3232H14.9753V6.67865Z" fill="#EB611D"/><path d="M9.40343 12.0001C9.40343 9.84118 10.4188 7.9171 11.9996 6.67861C10.8437 5.77153 9.38392 5.23083 7.79869 5.23083C4.04332 5.23083 1 8.26184 1 12.0001C1 15.7389 4.04332 18.7693 7.79869 18.7693C9.38447 18.7693 10.8442 18.2286 12.0001 17.3226C10.4188 16.0825 9.40343 14.1606 9.40343 12.0001Z" fill="#E41322"/><path d="M23 12.0001C23 15.7389 19.9566 18.7693 16.2007 18.7693C14.6155 18.7693 13.1557 18.2286 11.9993 17.3226C13.5811 16.0819 14.5965 14.1601 14.5965 12.0001C14.5965 9.84118 13.5811 7.9171 11.9993 6.67861C13.1563 5.77153 14.6155 5.23083 16.2013 5.23083C19.9572 5.23083 23 8.26184 23 12.0001Z" fill="#F59E21"/></symbol>

  <symbol id="PayPal" xmlns="http://www.w3.org/2000/svg" fill="none" viewBox="0 0 24 24"><path fill-rule="evenodd" clip-rule="evenodd" d="M10.8382 6.7077H16.1933C19.0685 6.7077 20.1508 8.24101 19.9835 10.4937C19.7071 14.2126 17.5728 16.2701 14.7419 16.2701H13.3126C12.9241 16.2701 12.6629 16.541 12.5578 17.2749L11.951 21.5413C11.9109 21.818 11.7727 21.9782 11.5653 22H8.20081C7.88426 22 7.7723 21.7452 7.85523 21.1933L9.90657 7.51586C9.98675 6.96835 10.2715 6.7077 10.8382 6.7077Z" fill="#009EE3"/><path fill-rule="evenodd" clip-rule="evenodd" d="M7.4887 2H12.8493C14.3587 2 16.1502 2.05096 17.3473 3.16491C18.1476 3.90899 18.5678 5.09283 18.4711 6.36841C18.1421 10.68 15.694 13.0957 12.4097 13.0957H9.76673C9.3161 13.0957 9.0189 13.4103 8.89173 14.2607L8.15358 19.2115C8.1052 19.5319 7.97388 19.7212 7.73889 19.7445H4.43105C4.06474 19.7445 3.9348 19.4532 4.03018 18.8096L6.40774 2.94066C6.50311 2.30287 6.83625 2 7.4887 2Z" fill="#113984"/><path fill-rule="evenodd" clip-rule="evenodd" d="M8.96899 13.7582L9.90481 7.51579C9.98637 6.96829 10.2711 6.70618 10.8379 6.70618H16.1929C17.079 6.70618 17.7964 6.85179 18.3576 7.12118C17.8199 10.9595 15.463 13.0913 12.3778 13.0913H9.73894C9.38507 13.0928 9.12519 13.2792 8.96899 13.7582Z" fill="#172C70"/></symbol>

  <symbol id="Pix" xmlns="http://www.w3.org/2000/svg" fill="none" viewBox="0 0 24 24"><path d="M17.5972 17.2999C16.8125 17.2999 16.0745 16.9944 15.5197 16.4397L12.5199 13.44C12.3094 13.2288 11.9422 13.2295 11.7317 13.44L8.72096 16.4507C8.16605 17.0053 7.42809 17.3108 6.64337 17.3108H6.05225L9.85147 21.1101C11.038 22.2966 12.9618 22.2966 14.1484 21.1101L17.9586 17.2999H17.5972Z" fill="#86B3AA"/><path d="M6.6434 6.68907C7.42811 6.68907 8.16608 6.9947 8.72089 7.54932L11.7316 10.5605C11.9485 10.7774 12.3025 10.7783 12.5199 10.5603L15.5197 7.56024C16.0746 7.00561 16.8125 6.70008 17.5972 6.70008H17.9586L14.1484 2.88993C12.9619 1.70336 11.0381 1.70336 9.8515 2.88993L6.05237 6.68907H6.6434Z" fill="#86B3AA"/><path d="M18.8076 7.5491L21.1101 9.85161C22.2966 11.0381 22.2966 12.9619 21.1101 14.1486L18.8077 16.4509C18.7569 16.4306 18.7021 16.418 18.6441 16.418H17.5973C17.056 16.418 16.5262 16.1985 16.1438 15.8157L13.144 12.8163C12.6004 12.272 11.6518 12.2723 11.1076 12.816L8.09688 15.8267C7.7144 16.2094 7.1847 16.4289 6.64343 16.4289H5.35621C5.30136 16.4289 5.24991 16.4418 5.20147 16.4601L2.88993 14.1486C1.70336 12.9619 1.70336 11.0381 2.88993 9.85161L5.20156 7.53998C5.25 7.55822 5.30136 7.57121 5.35621 7.57121H6.64343C7.1847 7.57121 7.7144 7.79067 8.09688 8.17334L11.1079 11.1844C11.3886 11.4648 11.7572 11.6053 12.126 11.6053C12.4946 11.6053 12.8634 11.4648 13.144 11.1841L16.1438 8.18425C16.5262 7.80158 17.056 7.58212 17.5973 7.58212H18.6441C18.702 7.58212 18.7569 7.56942 18.8076 7.5491Z" fill="#86B3AA"/></symbol>

  <symbol id="Stripe" xmlns="http://www.w3.org/2000/svg" viewBox="0 0 468 222.5"><path class="st0" d="M414 113.4c0-25.6-12.4-45.8-36.1-45.8-23.8 0-38.2 20.2-38.2 45.6 0 30.1 17 45.3 41.4 45.3 11.9 0 20.9-2.7 27.7-6.5v-20c-6.8 3.4-14.6 5.5-24.5 5.5-9.7 0-18.3-3.4-19.4-15.2h48.9c0-1.3.2-6.5.2-8.9zm-49.4-9.5c0-11.3 6.9-16 13.2-16 6.1 0 12.6 4.7 12.6 16h-25.8zM301.1 67.6c-9.8 0-16.1 4.6-19.6 7.8l-1.3-6.2h-22v116.6l25-5.3.1-28.3c3.6 2.6 8.9 6.3 17.7 6.3 17.9 0 34.2-14.4 34.2-46.1-.1-29-16.6-44.8-34.1-44.8zm-6 68.9c-5.9 0-9.4-2.1-11.8-4.7l-.1-37.1c2.6-2.9 6.2-4.9 11.9-4.9 9.1 0 15.4 10.2 15.4 23.3 0 13.4-6.2 23.4-15.4 23.4zM223.8 61.7l25.1-5.4V36l-25.1 5.3zM223.8 69.3h25.1v87.5h-25.1zM196.9 76.7l-1.6-7.4h-21.6v87.5h25V97.5c5.9-7.7 15.9-6.3 19-5.2v-23c-3.2-1.2-14.9-3.4-20.8 7.4zM146.9 47.6l-24.4 5.2-.1 80.1c0 14.8 11.1 25.7 25.9 25.7 8.2 0 14.2-1.5 17.5-3.3V135c-3.2 1.3-19 5.9-19-8.9V90.6h19V69.3h-19l.1-21.7zM79.3 94.7c0-3.9 3.2-5.4 8.5-5.4 7.6 0 17.2 2.3 24.8 6.4V72.2c-8.3-3.3-16.5-4.6-24.8-4.6C67.5 67.6 54 78.2 54 95.9c0 27.6 38 23.2 38 35.1 0 4.6-4 6.1-9.6 6.1-8.3 0-18.9-3.4-27.3-8v23.8c9.3 4 18.7 5.7 27.3 5.7 20.8 0 35.1-10.3 35.1-28.2-.1-29.8-38.2-24.5-38.2-35.7z" fill="#635bff"/></symbol>

  <symbol id="Visa" xmlns="http://www.w3.org/2000/svg" fill="none" viewBox="0 0 24 24"><path d="M10.405 15.8656H8.44718L9.67054 8.13848H11.6283L10.405 15.8656Z" fill="#0066B3"/><path d="M6.79891 8.13848L4.93167 13.4532L4.71034 12.308L4.05238 8.83512C4.05238 8.83512 3.9719 8.13848 3.12279 8.13848H0.0362179L0 8.26871C0 8.26871 0.943678 8.47129 2.04832 9.1514L3.75057 15.8656H5.79084L8.90558 8.13848H6.79891Z" fill="#0066B3"/><path d="M22.2012 15.8656H24L22.4326 8.13848H20.8571C20.1307 8.13848 19.9536 8.71522 19.9536 8.71522L17.0341 15.8677H19.0743L19.4828 14.7204H21.9718L22.2012 15.8656ZM20.0462 13.1328L21.0744 10.2408L21.6539 13.1328H20.0462Z" fill="#0066B3"/><path d="M17.1874 9.9969L17.4671 8.33695C17.4671 8.33695 16.6039 8 15.7065 8C14.7347 8 12.4268 8.43618 12.4268 10.5592C12.4268 12.5561 15.1351 12.5809 15.1351 13.6289C15.1351 14.677 12.7065 14.491 11.9036 13.8295L11.6119 15.5638C11.6119 15.5638 12.4871 16 13.8232 16C15.1592 16 17.1754 15.2889 17.1754 13.354C17.1754 11.3447 14.4429 11.1587 14.4429 10.2842C14.4409 9.40982 16.3484 9.52145 17.1874 9.9969Z" fill="#0066B3"/></symbol>
</svg>
