<svg style="display:none">
<symbol id="Bell" xmlns="http://www.w3.org/2000/svg" viewBox="0 0 256 256"><rect width="256" height="256" fill="none"></rect><path d="M56.2,104a71.9,71.9,0,0,1,72.3-72c39.6.3,71.3,33.2,71.3,72.9V112c0,35.8,7.5,56.6,14.1,68a8,8,0,0,1-6.9,12H49a8,8,0,0,1-6.9-12c6.6-11.4,14.1-32.2,14.1-68Z" fill="none" stroke="currentColor" stroke-linecap="round" stroke-linejoin="round"></path><path d="M96,192v8a32,32,0,0,0,64,0v-8" fill="none" stroke="currentColor" stroke-linecap="round" stroke-linejoin="round"></path></symbol>
<symbol id="BellRinging" xmlns="http://www.w3.org/2000/svg" fill="currentColor" viewBox="0 0 256 256"><rect width="256" height="256" fill="none"></rect><path d="M56.20305,112a71.80121,71.80121,0,1,1,143.60186,0h0c0,35.81563,7.49325,56.59893,14.093,67.95814A7.999,7.999,0,0,1,207.01628,192H48.98365A7.99908,7.99908,0,0,1,42.103,179.95641c6.60328-11.35959,14.1-32.1426,14.1-67.95641Z" fill="none" stroke="currentColor" stroke-linecap="round" stroke-linejoin="round"></path><path d="M96,192v8a32,32,0,0,0,64,0v-8" fill="none" stroke="currentColor" stroke-linecap="round" stroke-linejoin="round"></path><path d="M183.43247,23.98832a104.46641,104.46641,0,0,1,37.91845,42.1156" fill="none" stroke="currentColor" stroke-linecap="round" stroke-linejoin="round"></path><path d="M34.64909,66.10391A104.46639,104.46639,0,0,1,72.56757,23.98829" fill="none" stroke="currentColor" stroke-linecap="round" stroke-linejoin="round"></path></symbol>
<symbol id="X" xmlns="http://www.w3.org/2000/svg" fill="currentColor" viewBox="0 0 256 256"><rect width="256" height="256" fill="none"></rect><line x1="200" y1="56" x2="56" y2="200" fill="none" stroke="currentColor" stroke-linecap="round" stroke-linejoin="round"></line><line x1="200" y1="200" x2="56" y2="56" fill="none" stroke="currentColor" stroke-linecap="round" stroke-linejoin="round"></line></symbol>
<symbol id="XCircle" xmlns="http://www.w3.org/2000/svg" fill="currentColor" viewBox="0 0 256 256"><rect width="256" height="256" fill="none"></rect><circle cx="128" cy="128" r="96" fill="none" stroke="currentColor" stroke-miterlimit="10"></circle><line x1="160" y1="96" x2="96" y2="160" fill="none" stroke="currentColor" stroke-linecap="round" stroke-linejoin="round"></line><line x1="160" y1="160" x2="96" y2="96" fill="none" stroke="currentColor" stroke-linecap="round" stroke-linejoin="round"></line></symbol>
<symbol id="List" xmlns="http://www.w3.org/2000/svg" fill="currentColor" viewBox="0 0 256 256"><rect width="256" height="256" fill="none"></rect><line x1="40" y1="128" x2="216" y2="128" stroke="currentColor" stroke-linecap="round" stroke-linejoin="round"></line><line x1="40" y1="64" x2="216" y2="64" stroke="currentColor" stroke-linecap="round" stroke-linejoin="round"></line><line x1="40" y1="192" x2="216" y2="192" stroke="currentColor" stroke-linecap="round" stroke-linejoin="round"></line></symbol>
<symbol id="MagnifyingGlass" xmlns="http://www.w3.org/2000/svg" fill="currentColor" viewBox="0 0 256 256" data-testid="store-input-mobile-button"><rect width="256" height="256" fill="none"></rect><circle cx="116" cy="116" r="84" fill="none" stroke="currentColor" stroke-linecap="round" stroke-linejoin="round"></circle><line x1="175.39356" y1="175.40039" x2="223.99414" y2="224.00098" fill="none" stroke="currentColor" stroke-linecap="round" stroke-linejoin="round"></line></symbol>
<symbol id="User" xmlns="http://www.w3.org/2000/svg" fill="currentColor" viewBox="0 0 256 256"><rect width="256" height="256" fill="none"></rect><circle cx="128" cy="96" r="64" fill="none" stroke="currentColor" stroke-linecap="round" stroke-linejoin="round"></circle><path d="M30.989,215.99064a112.03731,112.03731,0,0,1,194.02311.002" fill="none" stroke="currentColor" stroke-linecap="round" stroke-linejoin="round"></path></symbol>
<symbol id="ShoppingCart" xmlns="http://www.w3.org/2000/svg" fill="currentColor" viewBox="0 0 256 256"><rect width="256" height="256" fill="none"></rect><path d="M184,184H69.81818L41.92162,30.56892A8,8,0,0,0,34.05066,24H16" fill="none" stroke="currentColor" stroke-linecap="round" stroke-linejoin="round"></path><circle cx="80" cy="204" r="20" fill="none" stroke="currentColor" stroke-linecap="round" stroke-linejoin="round"></circle><circle cx="184" cy="204" r="20" fill="none" stroke="currentColor" stroke-linecap="round" stroke-linejoin="round"></circle><path d="M62.54543,144H188.10132a16,16,0,0,0,15.74192-13.13783L216,64H48" fill="none" stroke="currentColor" stroke-linecap="round" stroke-linejoin="round"></path></symbol>
<symbol id="ArrowRight" xmlns="http://www.w3.org/2000/svg" fill="currentColor" viewBox="0 0 256 256"><rect width="256" height="256" fill="none"></rect><line x1="40" y1="128" x2="216" y2="128" fill="none" stroke="currentColor" stroke-linecap="round" stroke-linejoin="round"></line><polyline points="144 56 216 128 144 200" fill="none" stroke="currentColor" stroke-linecap="round" stroke-linejoin="round"></polyline></symbol>
<symbol id="ArrowLeft" xmlns="http://www.w3.org/2000/svg" fill="currentColor" viewBox="0 0 256 256"><rect width="256" height="256" fill="none"></rect><line x1="216" y1="128" x2="40" y2="128" fill="none" stroke="currentColor" stroke-linecap="round" stroke-linejoin="round"></line><polyline points="112 56 40 128 112 200" fill="none" stroke="currentColor" stroke-linecap="round" stroke-linejoin="round"></polyline></symbol>
<symbol id="ArrowUpRight"  xmlns="http://www.w3.org/2000/svg" width="256" height="256" viewBox="0 0 256 256" fill="none"><path d="M13,0.25H3.25C2.83579,0.25,2.5,0.585786,2.5,1C2.5,1.41421,2.83579,1.75,3.25,1.75H11.1893L0.46967,12.4697C0.176777,12.7626,0.176777,13.2374,0.46967,13.5303C0.762563,13.8232,1.23744,13.8232,1.53033,13.5303L12.25,2.81066V10.75C12.25,11.1642,12.5858,11.5,13,11.5C13.4142,11.5,13.75,11.1642,13.75,10.75V1C13.75,0.793702,13.6667,0.606858,13.5319,0.471263C13.5314,0.470731,13.5309,0.4702,13.5303,0.46967C13.5298,0.46914,13.5293,0.46861,13.5287,0.468082C13.4572,0.396963,13.3749,0.343239,13.2871,0.306909C13.1987,0.270239,13.1017,0.25,13,0.25Z" fill="black"/></symbol>
<symbol id="ArrowSquareOut" xmlns="http://www.w3.org/2000/svg" fill="currentColor" viewBox="0 0 256 256"><rect width="256" height="256" fill="none"></rect><polyline points="216 100 216 40 156 40" fill="none" stroke="currentColor" stroke-linecap="round" stroke-linejoin="round"></polyline><line x1="144" y1="112" x2="216" y2="40" fill="none" stroke="currentColor" stroke-linecap="round" stroke-linejoin="round"></line><path d="M184,144v64a8,8,0,0,1-8,8H48a8,8,0,0,1-8-8V80a8,8,0,0,1,8-8h64" fill="none" stroke="currentColor" stroke-linecap="round" stroke-linejoin="round"></path></symbol>
<symbol id="Truck" xmlns="http://www.w3.org/2000/svg" fill="currentColor" viewBox="0 0 256 256"><rect width="256" height="256" fill="none"></rect><path d="M240,120H176V80h42.58374a8,8,0,0,1,7.42781,5.02887Z" fill="none" stroke="currentColor" stroke-linecap="round" stroke-linejoin="round"></path><line x1="16" y1="144" x2="176" y2="144" fill="none" stroke="currentColor" stroke-linecap="round" stroke-linejoin="round"></line><circle cx="188" cy="192" r="24" fill="none" stroke="currentColor" stroke-miterlimit="10"></circle><circle cx="68" cy="192" r="24" fill="none" stroke="currentColor" stroke-miterlimit="10"></circle><line x1="164" y1="192" x2="92" y2="192" fill="none" stroke="currentColor" stroke-linecap="round" stroke-linejoin="round"></line><path d="M44,192H24a8,8,0,0,1-8-8V72a8,8,0,0,1,8-8H176V171.21508" fill="none" stroke="currentColor" stroke-linecap="round" stroke-linejoin="round"></path><path d="M176,171.21508V120h64v64a8,8,0,0,1-8,8H212" fill="none" stroke="currentColor" stroke-linecap="round" stroke-linejoin="round"></path></symbol>
<symbol id="Calendar" xmlns="http://www.w3.org/2000/svg" fill="currentColor" viewBox="0 0 256 256"><rect width="256" height="256" fill="none"></rect><rect x="40" y="40" width="176" height="176" rx="8"  stroke="currentColor" stroke-linecap="round" stroke-linejoin="round" fill="none"></rect><line x1="176" y1="24" x2="176" y2="56" fill="none" stroke="currentColor" stroke-linecap="round" stroke-linejoin="round"></line><line x1="80" y1="24" x2="80" y2="56" fill="none" stroke="currentColor" stroke-linecap="round" stroke-linejoin="round"></line><line x1="40" y1="88" x2="216" y2="88" fill="none" stroke="currentColor" stroke-linecap="round" stroke-linejoin="round"></line><path d="M92,127.99666h28l-16,20a16,16,0,1,1-11.30681,27.3206" fill="none" stroke="currentColor" stroke-linecap="round" stroke-linejoin="round"></path><polyline points="144 139.997 160 127.997 160 179.997" fill="none" stroke="currentColor" stroke-linecap="round" stroke-linejoin="round"></polyline></symbol>
<symbol id="Gift" xmlns="http://www.w3.org/2000/svg" fill="currentColor" viewBox="0 0 256 256"><rect width="256" height="256" fill="none"></rect><rect x="32" y="80" width="192" height="48" rx="7.99999" stroke="currentColor" stroke-linecap="round" stroke-linejoin="round" fill="none"></rect><path d="M208,128v72a8,8,0,0,1-8,8H56a8,8,0,0,1-8-8V128" fill="none" stroke="currentColor" stroke-linecap="round" stroke-linejoin="round"></path><line x1="128" y1="80" x2="128" y2="208" fill="none" stroke="currentColor" stroke-linecap="round" stroke-linejoin="round"></line><path d="M173.25483,68.68629C161.94113,80,128,80,128,80s0-33.94113,11.31371-45.25483a24,24,0,0,1,33.94112,33.94112Z" fill="none" stroke="currentColor" stroke-linecap="round" stroke-linejoin="round"></path><path d="M82.74517,68.68629C94.05887,80,128,80,128,80s0-33.94113-11.31371-45.25483A24,24,0,0,0,82.74517,68.68629Z" fill="none" stroke="currentColor" stroke-linecap="round" stroke-linejoin="round"></path></symbol>
<symbol id="Storefront" xmlns="http://www.w3.org/2000/svg" fill="currentColor" viewBox="0 0 256 256"><rect width="256" height="256" fill="none"></rect><path d="M48,139.58816V208a8,8,0,0,0,8,8H200a8,8,0,0,0,8-8V139.58972" fill="none" stroke="currentColor" stroke-linecap="round" stroke-linejoin="round"></path><path d="M54.03441,40H201.96559a8,8,0,0,1,7.69219,5.80223L224,96H32L46.34222,45.80223A8,8,0,0,1,54.03441,40Z" fill="none" stroke="currentColor" stroke-linecap="round" stroke-linejoin="round"></path><path d="M96,96v16a32,32,0,0,1-64,0V96" fill="none" stroke="currentColor" stroke-linecap="round" stroke-linejoin="round"></path><path d="M160,96v16a32,32,0,0,1-64,0V96" fill="none" stroke="currentColor" stroke-linecap="round" stroke-linejoin="round"></path><path d="M224,96v16a32,32,0,0,1-64,0V96" fill="none" stroke="currentColor" stroke-linecap="round" stroke-linejoin="round"></path></symbol>
<symbol id="ShieldCheck" xmlns="http://www.w3.org/2000/svg" fill="currentColor" viewBox="0 0 256 256"><rect width="256" height="256" fill="none"></rect><path d="M40,114.66667V56a8,8,0,0,1,8-8H208a8,8,0,0,1,8,8v58.66667c0,84.01533-71.306,111.85016-85.5438,116.57058a7.54755,7.54755,0,0,1-4.9124,0C111.306,226.51683,40,198.682,40,114.66667Z" fill="none" stroke="currentColor" stroke-linecap="round" stroke-linejoin="round"></path><polyline points="172 104 113.333 160 84 132" fill="none" stroke="currentColor" stroke-linecap="round" stroke-linejoin="round"></polyline></symbol>
<symbol id="Medal" xmlns="http://www.w3.org/2000/svg" fill="currentColor" viewBox="0 0 256 256"><rect width="256" height="256" fill="none"></rect><circle cx="127.99414" cy="96" r="80" fill="none" stroke="currentColor" stroke-linecap="round" stroke-linejoin="round"></circle><circle cx="127.99414" cy="96" r="48" fill="none" stroke="currentColor" stroke-linecap="round" stroke-linejoin="round"></circle><polyline points="176 159.995 176 240 127.993 216 80 240 80 160.002" fill="none" stroke="currentColor" stroke-linecap="round" stroke-linejoin="round"></polyline></symbol>
<symbol id="CircleWavyCheck" xmlns="http://www.w3.org/2000/svg" fill="currentColor" viewBox="0 0 256 256"><rect width="256" height="256" fill="none"></rect><path d="M54.46089,201.53911c-9.204-9.204-3.09935-28.52745-7.78412-39.85C41.82037,149.95168,24,140.50492,24,127.99963,24,115.4945,41.82047,106.048,46.67683,94.31079c4.68477-11.32253-1.41993-30.6459,7.78406-39.8499s28.52746-3.09935,39.85-7.78412C106.04832,41.82037,115.49508,24,128.00037,24c12.50513,0,21.95163,17.82047,33.68884,22.67683,11.32253,4.68477,30.6459-1.41993,39.8499,7.78406s3.09935,28.52746,7.78412,39.85C214.17963,106.04832,232,115.49508,232,128.00037c0,12.50513-17.82047,21.95163-22.67683,33.68884-4.68477,11.32253,1.41993,30.6459-7.78406,39.8499s-28.52745,3.09935-39.85,7.78412C149.95168,214.17963,140.50492,232,127.99963,232c-12.50513,0-21.95163-17.82047-33.68884-22.67683C82.98826,204.6384,63.66489,210.7431,54.46089,201.53911Z" fill="none" stroke="currentColor" stroke-linecap="round" stroke-linejoin="round"></path><polyline points="172 104 113.333 160 84 132" fill="none" stroke="currentColor" stroke-linecap="round" stroke-linejoin="round"></polyline></symbol>
<symbol id="CircleWavyWarning" xmlns="http://www.w3.org/2000/svg" fill="currentColor" viewBox="0 0 256 256"><rect width="256" height="256" fill="none"></rect><path d="M54.46089,201.53911c-9.204-9.204-3.09935-28.52745-7.78412-39.85C41.82037,149.95168,24,140.50492,24,127.99963,24,115.4945,41.82047,106.048,46.67683,94.31079c4.68477-11.32253-1.41993-30.6459,7.78406-39.8499s28.52746-3.09935,39.85-7.78412C106.04832,41.82037,115.49508,24,128.00037,24c12.50513,0,21.95163,17.82047,33.68884,22.67683,11.32253,4.68477,30.6459-1.41993,39.8499,7.78406s3.09935,28.52746,7.78412,39.85C214.17963,106.04832,232,115.49508,232,128.00037c0,12.50513-17.82047,21.95163-22.67683,33.68884-4.68477,11.32253,1.41993,30.6459-7.78406,39.8499s-28.52745,3.09935-39.85,7.78412C149.95168,214.17963,140.50492,232,127.99963,232c-12.50513,0-21.95163-17.82047-33.68884-22.67683C82.98826,204.6384,63.66489,210.7431,54.46089,201.53911Z" fill="none" stroke="currentColor" stroke-linecap="round" stroke-linejoin="round"></path><line x1="127.99951" y1="80" x2="127.99951" y2="136" fill="none" stroke="currentColor" stroke-linecap="round" stroke-linejoin="round"></line><circle cx="127.99951" cy="172" r="8"></circle></symbol>
<symbol id="CaretUp" xmlns="http://www.w3.org/2000/svg" fill="currentColor" viewBox="0 0 256 256"><rect width="256" height="256" fill="none"></rect><polyline points="48 160 128 80 208 160" fill="none" stroke="currentColor" stroke-linecap="round" stroke-linejoin="round"></polyline></symbol>
<symbol id="CaretDown" xmlns="http://www.w3.org/2000/svg" fill="currentColor" viewBox="0 0 256 256"><rect width="256" height="256" fill="none"></rect><polyline points="208 96 128 176 48 96" fill="none" stroke="currentColor" stroke-linecap="round" stroke-linejoin="round"></polyline></symbol>
<symbol id="CaretLeft" xmlns="http://www.w3.org/2000/svg" fill="currentColor" viewBox="0 0 256 256"><rect width="256" height="256" fill="none"></rect><polyline points="160 208 80 128 160 48" fill="none" stroke="currentColor" stroke-linecap="round" stroke-linejoin="round"></polyline></symbol>
<symbol id="CaretRight" xmlns="http://www.w3.org/2000/svg" fill="currentColor" viewBox="0 0 256 256"><rect width="256" height="256" fill="none"></rect><polyline points="96 48 176 128 96 208" fill="none" stroke="currentColor" stroke-linecap="round" stroke-linejoin="round"></polyline></symbol>
<symbol id="PlusCircle" xmlns="http://www.w3.org/2000/svg" fill="currentColor" viewBox="0 0 256 256"><rect width="256" height="256" fill="none"></rect><circle cx="128" cy="128" r="96" fill="none" stroke="currentColor" stroke-miterlimit="10"></circle><line x1="88" y1="128" x2="168" y2="128" fill="none" stroke="currentColor" stroke-linecap="round" stroke-linejoin="round"></line><line x1="128" y1="88" x2="128" y2="168" fill="none" stroke="currentColor" stroke-linecap="round" stroke-linejoin="round"></line></symbol>
<symbol id="MinusCircle" xmlns="http://www.w3.org/2000/svg" fill="currentColor" viewBox="0 0 256 256"><rect width="256" height="256" fill="none"></rect><circle cx="128" cy="128" r="96" fill="none" stroke="currentColor" stroke-miterlimit="10"></circle><line x1="88" y1="128" x2="168" y2="128" fill="none" stroke="currentColor" stroke-linecap="round" stroke-linejoin="round"></line></symbol>
<symbol id="Minus" xmlns="http://www.w3.org/2000/svg" fill="currentColor" viewBox="0 0 256 256"><rect width="256" height="256" fill="none"></rect><line x1="40" y1="128" x2="216" y2="128" fill="none" stroke="currentColor" stroke-linecap="round" stroke-linejoin="round"></line></symbol>
<symbol id="Plus" xmlns="http://www.w3.org/2000/svg" fill="currentColor" viewBox="0 0 256 256"><rect width="256" height="256" fill="none"></rect><line x1="40" y1="128" x2="216" y2="128" fill="none" stroke="currentColor" stroke-linecap="round" stroke-linejoin="round"></line><line x1="128" y1="40" x2="128" y2="216" fill="none" stroke="currentColor" stroke-linecap="round" stroke-linejoin="round"></line></symbol>
<symbol id="House" xmlns="http://www.w3.org/2000/svg" fill="currentColor" viewBox="0 0 256 256"><rect width="256" height="256" fill="none"></rect><path d="M151.99414,207.99263v-48.001a8,8,0,0,0-8-8h-32a8,8,0,0,0-8,8v48.001a8,8,0,0,1-7.999,8l-47.99414.00632a8,8,0,0,1-8.001-8v-92.4604a8,8,0,0,1,2.61811-5.91906l79.9945-72.73477a8,8,0,0,1,10.76339-.00036l80.0055,72.73509A8,8,0,0,1,216,115.53887V207.999a8,8,0,0,1-8.001,8l-48.00586-.00632A8,8,0,0,1,151.99414,207.99263Z" fill="none" stroke="currentColor" stroke-linecap="round" stroke-linejoin="round"></path></symbol>
<symbol id="RocketLaunch" xmlns="http://www.w3.org/2000/svg" fill="currentColor" viewBox="0 0 256 256"><rect width="256" height="256" fill="none"></rect><path d="M195.88225,105.37258,128,173.25483,82.74517,128l67.88225-67.88225c25.70415-25.70415,51.40829-25.45342,62.37042-23.81787a7.96343,7.96343,0,0,1,6.70228,6.70228C221.33567,53.96429,221.5864,79.66843,195.88225,105.37258Z" fill="none" stroke="currentColor" stroke-linecap="round" stroke-linejoin="round"></path><path d="M184.56854,116.68629v64.56854a8,8,0,0,1-2.34314,5.65686l-32.34176,32.34176a8,8,0,0,1-13.5015-4.08793L128,173.25483" fill="none" stroke="currentColor" stroke-linecap="round" stroke-linejoin="round"></path><path d="M139.31371,71.43146H74.74517a8,8,0,0,0-5.65686,2.34314L36.74655,106.11636a8,8,0,0,0,4.08793,13.5015L82.74517,128" fill="none" stroke="currentColor" stroke-linecap="round" stroke-linejoin="round"></path><path d="M90.56048,192.38144c-15.05815,26.12823-53.07015,26.12823-53.07015,26.12823s0-38.012,26.12827-53.07018" fill="none" stroke="currentColor" stroke-linecap="round" stroke-linejoin="round"></path></symbol>
<symbol id="FadersHorizontal" xmlns="http://www.w3.org/2000/svg" fill="currentColor" viewBox="0 0 256 256"><rect width="256" height="256" fill="none"></rect><line x1="135.99902" y1="171.99304" x2="39.99902" y2="171.99317" fill="none" stroke="currentColor" stroke-linecap="round" stroke-linejoin="round"></line><line x1="215.99902" y1="171.99317" x2="167.99902" y2="171.99304" fill="none" stroke="currentColor" stroke-linecap="round" stroke-linejoin="round"></line><line x1="71.99902" y1="83.99304" x2="39.99902" y2="83.99246" fill="none" stroke="currentColor" stroke-linecap="round" stroke-linejoin="round"></line><line x1="215.99902" y1="83.99246" x2="103.99902" y2="83.99304" fill="none" stroke="currentColor" stroke-linecap="round" stroke-linejoin="round"></line><line x1="103.99902" y1="59.99304" x2="103.99902" y2="107.99304" fill="none" stroke="currentColor" stroke-linecap="round" stroke-linejoin="round"></line><line x1="167.99902" y1="195.99304" x2="167.99902" y2="147.99304" fill="none" stroke="currentColor" stroke-linecap="round" stroke-linejoin="round"></line></symbol>
<symbol id="Headphones" xmlns="http://www.w3.org/2000/svg" fill="currentColor" viewBox="0 0 256 256"><rect width="256" height="256" fill="none"></rect><path d="M225.45581,136h-32a16,16,0,0,0-16,16v40a16,16,0,0,0,16,16h16a16,16,0,0,0,16-16V136A96.0001,96.0001,0,0,0,128.7279,40.0027,96.00009,96.00009,0,0,0,32,136v56a16,16,0,0,0,16,16H64a16,16,0,0,0,16-16V152a16,16,0,0,0-16-16H32" fill="none" stroke="currentColor" stroke-linecap="round" stroke-linejoin="round"></path></symbol>
<symbol id="GooglePay" xmlns="http://www.w3.org/2000/svg" fill="none" viewBox="0 0 34 24"> <path d="M0 3C0 1.34315 1.34315 0 3 0H31C32.6569 0 34 1.34315 34 3V21C34 22.6569 32.6569 24 31 24H3C1.34315 24 0 22.6569 0 21V3Z" fill="white" /> <rect x="0.5" y="0.5" width="33" height="23" rx="2.5" stroke="#fff" /> <path fillRule="evenodd" clipRule="evenodd" d="M16.0579 15.528V12.5933H17.5725C18.1931 12.5933 18.717 12.3854 19.1441 11.9752L19.2466 11.8712C20.0266 11.022 19.9754 9.69913 19.1441 8.91347C18.7284 8.49754 18.159 8.27224 17.5725 8.28379H15.1411V15.528H16.0579ZM16.058 11.7036V9.17337H17.5956C17.9259 9.17337 18.2391 9.30047 18.4726 9.53154C18.9681 10.0168 18.9795 10.8256 18.5011 11.3281C18.2676 11.5766 17.9373 11.7152 17.5956 11.7036H16.058ZM23.5228 10.9585C23.1299 10.5945 22.5947 10.4097 21.9171 10.4097C21.0459 10.4097 20.3911 10.7332 19.9583 11.3744L20.7669 11.8885C21.063 11.4495 21.4673 11.23 21.9797 11.23C22.3043 11.23 22.6175 11.3513 22.8623 11.5708C23.1015 11.7788 23.2381 12.0792 23.2381 12.3969V12.6106C22.8851 12.4142 22.441 12.3102 21.8943 12.3102C21.2566 12.3102 20.7441 12.4604 20.3626 12.7666C19.9811 13.0728 19.7875 13.4772 19.7875 13.9913C19.7761 14.4592 19.9754 14.9041 20.3285 15.2045C20.6872 15.528 21.1427 15.6897 21.6779 15.6897C22.31 15.6897 22.8111 15.4067 23.1926 14.8405H23.2324V15.528H24.1093V12.472C24.1093 11.8308 23.9157 11.3224 23.5228 10.9585ZM21.0347 14.6152C20.8467 14.4766 20.7328 14.2513 20.7328 14.0087C20.7328 13.7372 20.8581 13.5119 21.103 13.3328C21.3536 13.1537 21.6668 13.0613 22.037 13.0613C22.5495 13.0555 22.9482 13.171 23.2329 13.4021C23.2329 13.7949 23.0792 14.1358 22.7773 14.4246C22.504 14.7019 22.1338 14.8579 21.7465 14.8579C21.4903 14.8636 21.2397 14.777 21.0347 14.6152ZM26.0795 17.7058L29.1429 10.5714H28.1464L26.7286 14.13H26.7115L25.2595 10.5714H24.2631L26.2731 15.2102L25.1343 17.7058H26.0795Z" fill="#3C4043" /> <path d="M12.893 11.9579C12.893 11.6748 12.8702 11.3918 12.8247 11.1145H8.95837V12.7147H11.1734C11.0823 13.2288 10.7862 13.691 10.3534 13.9798V15.0196H11.6745C12.4488 14.2975 12.893 13.2288 12.893 11.9579Z" fill="#4285F4" /> <path d="M8.95854 16.0248C10.0632 16.0248 10.997 15.6551 11.6746 15.0196L10.3536 13.9798C9.98347 14.234 9.51086 14.3784 8.95854 14.3784C7.88805 14.3784 6.98269 13.6448 6.65813 12.6627H5.29724V13.7372C5.99192 15.141 7.40975 16.0248 8.95854 16.0248Z" fill="#34A853" /> <path d="M6.65822 12.6627C6.48737 12.1486 6.48737 11.5882 6.65822 11.0683V9.99956H5.29712C4.71053 11.1723 4.71053 12.5587 5.29712 13.7314L6.65822 12.6627Z" fill="#FBBC04" /> <path d="M8.95854 9.35253C9.54503 9.34098 10.1087 9.56628 10.5301 9.97644L11.7031 8.7864C10.9572 8.08162 9.97778 7.69457 8.95854 7.70612C7.40975 7.70612 5.99192 8.59576 5.29724 9.99954L6.65813 11.074C6.98269 10.0862 7.88805 9.35253 8.95854 9.35253Z" fill="#EA4335" /> </symbol>
<symbol id="ApplePay" xmlns="http://www.w3.org/2000/svg" fill="none" viewBox="0 0 34 24"> <path d="M0 3C0 1.34315 1.34315 0 3 0H31C32.6569 0 34 1.34315 34 3V21C34 22.6569 32.6569 24 31 24H3C1.34315 24 0 22.6569 0 21V3Z" fill="white" /> <rect x="0.5" y="0.5" width="33" height="23" rx="2.5" stroke="#fff" /> <path fillRule="evenodd" clipRule="evenodd" d="M9.44921 8.34316C9.16382 8.69506 8.70721 8.97261 8.2506 8.93296C8.19353 8.45715 8.41707 7.95161 8.67867 7.63936C8.96406 7.27755 9.46348 7.01983 9.86777 7C9.91533 7.49563 9.72983 7.98135 9.44921 8.34316ZM9.86297 9.02712C9.46071 9.003 9.09366 9.15319 8.79718 9.2745C8.60639 9.35256 8.44483 9.41867 8.32191 9.41867C8.18397 9.41867 8.01574 9.34903 7.82685 9.27084L7.82685 9.27084C7.57935 9.16838 7.29638 9.05124 6.99964 9.05686C6.31948 9.06677 5.68688 9.46823 5.33967 10.1076C4.62621 11.3863 5.15417 13.2796 5.84384 14.3205C6.18155 14.8359 6.58584 15.4009 7.11855 15.3811C7.35291 15.3719 7.5215 15.2973 7.69597 15.2202C7.89683 15.1314 8.10549 15.0391 8.43131 15.0391C8.74582 15.0391 8.94536 15.129 9.1369 15.2152C9.31903 15.2973 9.49393 15.376 9.75358 15.3712C10.3053 15.3613 10.6525 14.8557 10.9902 14.3403C11.3547 13.7871 11.5148 13.2471 11.5391 13.1652L11.542 13.1557C11.5414 13.1551 11.5369 13.153 11.5289 13.1492C11.4071 13.0911 10.476 12.6469 10.467 11.4557C10.4581 10.4559 11.2056 9.94935 11.3233 9.86961L11.3233 9.8696C11.3304 9.86476 11.3353 9.86149 11.3374 9.85978C10.8618 9.12625 10.1198 9.04695 9.86297 9.02712ZM13.6824 15.3167V7.5898H16.4649C17.9013 7.5898 18.9049 8.62071 18.9049 10.1274C18.9049 11.6341 17.8822 12.675 16.4268 12.675H14.8334V15.3167H13.6824ZM14.8333 8.60088H16.1603C17.1592 8.60088 17.7299 9.15599 17.7299 10.1324C17.7299 11.1088 17.1592 11.6688 16.1556 11.6688H14.8333V8.60088ZM22.7053 14.3898C22.4009 14.9945 21.7302 15.3761 21.0072 15.3761C19.9371 15.3761 19.1903 14.712 19.1903 13.7108C19.1903 12.7196 19.9133 12.1496 21.2498 12.0653L22.6862 11.9761V11.5499C22.6862 10.9204 22.2915 10.5784 21.5875 10.5784C21.0072 10.5784 20.5839 10.8907 20.4983 11.3665H19.4614C19.4947 10.3653 20.3984 9.63675 21.6208 9.63675C22.9383 9.63675 23.7945 10.3554 23.7945 11.4706V15.3167H22.729V14.3898H22.7053ZM21.3163 14.4592C20.7027 14.4592 20.3127 14.1519 20.3127 13.6811C20.3127 13.1954 20.6885 12.9129 21.4067 12.8683L22.6861 12.784V13.2202C22.6861 13.9438 22.0964 14.4592 21.3163 14.4592ZM27.3284 15.619C26.867 16.9721 26.3391 17.4181 25.2166 17.4181C25.131 17.4181 24.8456 17.4082 24.779 17.3884V16.4616C24.8503 16.4715 25.0263 16.4814 25.1167 16.4814C25.6256 16.4814 25.911 16.2584 26.087 15.6785L26.1916 15.3365L24.2415 9.7111H25.4449L26.8004 14.2759H26.8242L28.1798 9.7111H29.3499L27.3284 15.619Z" fill="black" /> </symbol>
<symbol id="Diners" xmlns="http://www.w3.org/2000/svg" fill="none" viewBox="0 0 34 24"> <path d="M0 3C0 1.34315 1.34315 0 3 0H31C32.6569 0 34 1.34315 34 3V21C34 22.6569 32.6569 24 31 24H3C1.34315 24 0 22.6569 0 21V3Z" fill="white" /> <rect x="0.5" y="0.5" width="33" height="23" rx="2.5" stroke="#fff" /> <path fillRule="evenodd" clipRule="evenodd" d="M15.8385 19.3H18.4346C22.487 19.3 25.7163 16.085 25.8429 12.1135V12.0504C25.7796 8.0159 22.487 4.73784 18.4346 4.80088H15.5219C11.6594 4.92696 8.6201 8.20502 8.74674 12.1135C8.74674 16.0219 11.9127 19.2369 15.8385 19.3ZM10.0131 12.0504C10.0131 8.77235 12.7359 6.06165 16.0284 6.06165C19.321 6.06165 22.0438 8.77235 22.0438 12.0504C22.0438 15.3285 19.321 18.0392 16.0284 18.0392C12.7359 18.0392 10.0131 15.3285 10.0131 12.0504ZM16.9782 16.0849V8.07892C19.1944 8.64627 20.5874 10.8527 20.0176 13.059C19.6376 14.572 18.4979 15.7067 16.9782 16.0849ZM12.1027 11.0418C11.5328 13.2482 12.8625 15.5176 15.0787 16.0849V8.07892C13.6223 8.45716 12.4826 9.59187 12.1027 11.0418Z" fill="#0079BE" /> </symbol>
<symbol id="EloCard" xmlns="http://www.w3.org/2000/svg" fill="none" viewBox="0 0 34 24"> <path d="M0 3C0 1.34315 1.34315 0 3 0H31C32.6569 0 34 1.34315 34 3V21C34 22.6569 32.6569 24 31 24H3C1.34315 24 0 22.6569 0 21V3Z" fill="white" /> <rect x="0.5" y="0.5" width="33" height="23" rx="2.5" stroke="#fff" /> <path d="M7.82418 9.49573C8.11187 9.40141 8.41964 9.35019 8.73987 9.35019C10.1374 9.35019 11.3032 10.3241 11.5706 11.6178L13.5511 11.2216C13.0966 9.0229 11.1155 7.3678 8.73987 7.3678C8.19597 7.3678 7.67243 7.45472 7.18372 7.61484L7.82418 9.49573Z" fill="#FECA2F" /> <path d="M5.46727 15.8677L6.65306 14.3366C6.12376 13.8012 5.78968 13.0196 5.78968 12.1484C5.78968 11.2778 6.12344 10.4962 6.6526 9.96121L5.46618 8.4303C4.56678 9.33989 4 10.6685 4 12.1484C4 13.629 4.56761 14.9581 5.46727 15.8677Z" fill="#1BA7DE" /> <path d="M11.5712 12.6802C11.3029 13.9737 10.1379 14.9464 8.74154 14.9464C8.42118 14.9464 8.11281 14.895 7.82509 14.8004L7.18372 16.6822C7.67319 16.8432 8.19689 16.9302 8.74154 16.9302C11.115 16.9302 13.0948 15.2762 13.5511 13.0783L11.5712 12.6802Z" fill="#EC412A" /> <path fillRule="evenodd" clipRule="evenodd" d="M23.0795 8.4303V13.8716L24.0559 14.263L23.594 15.3362L22.6284 14.948C22.4112 14.857 22.2643 14.7183 22.1527 14.5616C22.0455 14.4013 21.966 14.1822 21.966 13.8865V8.4303H23.0795ZM15.6738 12.4744C15.6981 10.9184 17.0232 9.67627 18.6312 9.70011C19.9959 9.7208 21.1267 10.6452 21.4237 11.8746L16.1453 14.0562C15.8387 13.6029 15.6644 13.0576 15.6738 12.4744ZM16.8816 12.6926C16.8743 12.6273 16.8692 12.5603 16.8711 12.4928C16.8863 11.576 17.6664 10.8445 18.6138 10.8597C19.1295 10.8663 19.5873 11.0947 19.8969 11.4481L16.8816 12.6926ZM19.7857 13.7028C19.4676 14.002 19.0362 14.1843 18.5599 14.1778C18.2334 14.1725 17.9309 14.078 17.6737 13.9205L17.036 14.903C17.4727 15.1699 17.9876 15.3278 18.5427 15.3361C19.3508 15.3478 20.0873 15.0408 20.6228 14.534L19.7857 13.7028ZM27.1434 10.8596C26.9532 10.8596 26.7704 10.8894 26.5996 10.9448L26.2197 9.84383C26.5097 9.75019 26.8202 9.69933 27.1434 9.69933C28.5537 9.69933 29.7302 10.6681 30 11.9549L28.8238 12.1868C28.6653 11.4294 27.9732 10.8596 27.1434 10.8596ZM25.2123 14.629L26.007 13.76C25.6521 13.4561 25.4286 13.0123 25.4286 12.5176C25.4286 12.0235 25.6521 11.5799 26.0067 11.2763L25.2114 10.4072C24.6084 10.9236 24.2286 11.678 24.2286 12.5176C24.2286 13.3583 24.6087 14.1125 25.2123 14.629ZM27.1433 14.1763C27.9724 14.1763 28.6644 13.607 28.8238 12.8507L29.9996 13.0836C29.7285 14.369 28.5524 15.3364 27.1433 15.3364C26.8199 15.3364 26.5089 15.2854 26.2182 15.1913L26.599 14.0908C26.7701 14.146 26.953 14.1763 27.1433 14.1763Z" fill="black" /> </symbol>
<symbol id="Instagram" xmlns="http://www.w3.org/2000/svg" fill="none" viewBox="0 0 24 24"> <path d="M12.0005 0.363647C8.84036 0.363647 8.44377 0.377466 7.20259 0.433951C5.96384 0.490678 5.11829 0.686799 4.37843 0.974557C3.61312 1.27177 2.96393 1.66934 2.31716 2.31637C1.66991 2.96316 1.27235 3.61237 0.974173 4.37746C0.685697 5.11759 0.48934 5.9634 0.433584 7.20171C0.37807 8.44292 0.363525 8.83977 0.363525 12C0.363525 15.1603 0.377586 15.5556 0.433827 16.7969C0.490794 18.0356 0.68691 18.8812 0.974416 19.6211C1.27186 20.3864 1.66943 21.0356 2.31644 21.6824C2.96296 22.3297 3.61215 22.7283 4.37698 23.0255C5.11732 23.3132 5.96311 23.5093 7.20162 23.5661C8.4428 23.6226 8.83915 23.6364 11.9991 23.6364C15.1594 23.6364 15.5548 23.6226 16.796 23.5661C18.0347 23.5093 18.8813 23.3132 19.6216 23.0255C20.3867 22.7283 21.0349 22.3297 21.6814 21.6824C22.3287 21.0356 22.7262 20.3864 23.0244 19.6213C23.3105 18.8812 23.5068 18.0354 23.565 16.7971C23.6208 15.5559 23.6353 15.1603 23.6353 12C23.6353 8.83977 23.6208 8.44316 23.565 7.20195C23.5068 5.96316 23.3105 5.11759 23.0244 4.37771C22.7262 3.61237 22.3287 2.96316 21.6814 2.31637C21.0342 1.6691 20.3869 1.27153 19.6209 0.974557C18.8791 0.686799 18.0331 0.490678 16.7943 0.433951C15.5531 0.377466 15.158 0.363647 11.9969 0.363647H12.0005ZM10.9567 2.46062C11.2665 2.46013 11.6122 2.46062 12.0005 2.46062C15.1073 2.46062 15.4756 2.47177 16.7024 2.52753C17.8369 2.5794 18.4527 2.76898 18.8628 2.92825C19.4059 3.13916 19.793 3.39128 20.2 3.79856C20.6073 4.20583 20.8594 4.59371 21.0708 5.13674C21.23 5.54643 21.4199 6.16219 21.4715 7.29674C21.5272 8.5234 21.5394 8.89189 21.5394 11.9973C21.5394 15.1028 21.5272 15.4713 21.4715 16.6979C21.4196 17.8325 21.23 18.4483 21.0708 18.8579C20.8599 19.401 20.6073 19.7876 20.2 20.1947C19.7928 20.6019 19.4061 20.8541 18.8628 21.065C18.4532 21.225 17.8369 21.4141 16.7024 21.4659C15.4758 21.5217 15.1073 21.5338 12.0005 21.5338C8.89345 21.5338 8.52522 21.5217 7.29859 21.4659C6.16408 21.4136 5.54834 21.224 5.13793 21.0647C4.59491 20.8538 4.20705 20.6017 3.79978 20.1944C3.39252 19.7872 3.14041 19.4003 2.92902 18.857C2.76976 18.4473 2.57994 17.8315 2.52831 16.697C2.47255 15.4703 2.4614 15.1018 2.4614 11.9944C2.4614 8.88704 2.47255 8.5205 2.52831 7.29383C2.58019 6.15928 2.76976 5.54353 2.92902 5.13334C3.13993 4.59031 3.39252 4.20243 3.79978 3.79516C4.20705 3.38789 4.59491 3.13577 5.13793 2.92437C5.5481 2.76437 6.16408 2.57528 7.29859 2.52316C8.37201 2.47468 8.788 2.46013 10.9567 2.45771V2.46062ZM18.2117 4.39274C17.4408 4.39274 16.8154 5.01746 16.8154 5.78862C16.8154 6.55953 17.4408 7.18498 18.2117 7.18498C18.9826 7.18498 19.608 6.55953 19.608 5.78862C19.608 5.01771 18.9826 4.39225 18.2117 4.39225V4.39274ZM12.0005 6.02425C8.70048 6.02425 6.02493 8.69989 6.02493 12C6.02493 15.3001 8.70048 17.9746 12.0005 17.9746C15.3005 17.9746 17.9751 15.3001 17.9751 12C17.9751 8.69989 15.3003 6.02425 12.0003 6.02425H12.0005ZM12.0005 8.12122C14.1425 8.12122 15.8792 9.85771 15.8792 12C15.8792 14.1421 14.1425 15.8788 12.0005 15.8788C9.85827 15.8788 8.12184 14.1421 8.12184 12C8.12184 9.85771 9.85827 8.12122 12.0005 8.12122Z" fill="currentColor" /></symbol>
<symbol id="Mastercard" xmlns="http://www.w3.org/2000/svg" fill="none" viewBox="0 0 34 24"> <path d="M0 3C0 1.34315 1.34315 0 3 0H31C32.6569 0 34 1.34315 34 3V21C34 22.6569 32.6569 24 31 24H3C1.34315 24 0 22.6569 0 21V3Z" fill="white" /> <rect x="0.5" y="0.5" width="33" height="23" rx="2.5" stroke="#fff" /> <path fillRule="evenodd" clipRule="evenodd" d="M17.179 16.8294C15.9949 17.8275 14.459 18.43 12.7807 18.43C9.03582 18.43 6 15.4303 6 11.73C6 8.02966 9.03582 5.02997 12.7807 5.02997C14.459 5.02997 15.9949 5.63247 17.179 6.63051C18.363 5.63247 19.8989 5.02997 21.5773 5.02997C25.3221 5.02997 28.358 8.02966 28.358 11.73C28.358 15.4303 25.3221 18.43 21.5773 18.43C19.8989 18.43 18.363 17.8275 17.179 16.8294Z" fill="#ED0006" /> <path fillRule="evenodd" clipRule="evenodd" d="M17.179 16.8294C18.6369 15.6005 19.5614 13.7719 19.5614 11.73C19.5614 9.68801 18.6369 7.85941 17.179 6.63051C18.363 5.63247 19.8989 5.02997 21.5772 5.02997C25.3221 5.02997 28.3579 8.02966 28.3579 11.73C28.3579 15.4303 25.3221 18.43 21.5772 18.43C19.8989 18.43 18.363 17.8275 17.179 16.8294Z" fill="#F9A000" /> <path fillRule="evenodd" clipRule="evenodd" d="M17.179 16.8294C18.6369 15.6005 19.5614 13.7719 19.5614 11.73C19.5614 9.68804 18.6369 7.85945 17.179 6.63054C15.7211 7.85945 14.7966 9.68804 14.7966 11.73C14.7966 13.7719 15.7211 15.6005 17.179 16.8294Z" fill="#FF5E00" /> </symbol>
<symbol id="PayPal" xmlns="http://www.w3.org/2000/svg" fill="none" viewBox="0 0 34 24"> <path d="M0 3C0 1.34315 1.34315 0 3 0H31C32.6569 0 34 1.34315 34 3V21C34 22.6569 32.6569 24 31 24H3C1.34315 24 0 22.6569 0 21V3Z" fill="white" /> <rect x="0.5" y="0.5" width="33" height="23" rx="2.5" stroke="#fff" /> <path fillRule="evenodd" clipRule="evenodd" d="M14.6142 18.4483L14.8349 16.9992L14.3432 16.9873H11.9953L13.627 6.29368C13.6321 6.2613 13.6485 6.23124 13.6725 6.20986C13.6967 6.18847 13.7274 6.17674 13.7596 6.17674H17.7185C19.033 6.17674 19.94 6.45938 20.4135 7.01732C20.6355 7.27906 20.7769 7.55265 20.8453 7.85362C20.9171 8.16949 20.9183 8.54683 20.8483 9.00714L20.8432 9.04062V9.3356L21.0652 9.46561C21.2521 9.56813 21.4008 9.68544 21.5147 9.81973C21.7046 10.0436 21.8274 10.3281 21.8793 10.6652C21.933 11.012 21.9153 11.4248 21.8274 11.892C21.7261 12.4294 21.5624 12.8976 21.3412 13.2805C21.1378 13.6334 20.8787 13.9262 20.5709 14.153C20.2772 14.3686 19.9282 14.5322 19.5335 14.6369C19.1511 14.7398 18.7151 14.7917 18.2368 14.7917H17.9287C17.7085 14.7917 17.4945 14.8737 17.3265 15.0207C17.158 15.1708 17.0467 15.3758 17.0125 15.6L16.9892 15.7305L16.5992 18.2848L16.5816 18.3785C16.5768 18.4082 16.5688 18.423 16.557 18.433C16.5465 18.4422 16.5313 18.4483 16.5166 18.4483H14.6142Z" fill="#28356A" /> <path fillRule="evenodd" clipRule="evenodd" d="M21.2756 9.07468C21.2639 9.15276 21.2503 9.23255 21.2352 9.31454C20.7131 12.0852 18.9269 13.0423 16.6456 13.0423H15.4841C15.2051 13.0423 14.9699 13.2517 14.9265 13.5361L14.1634 18.5394C14.1351 18.7262 14.2744 18.8945 14.4567 18.8945H16.5169C16.7608 18.8945 16.968 18.7113 17.0064 18.4626L17.0267 18.3545L17.4146 15.8103L17.4395 15.6707C17.4774 15.4212 17.6852 15.2379 17.9291 15.2379H18.2372C20.2331 15.2379 21.7957 14.4004 22.2524 11.9766C22.4431 10.9641 22.3444 10.1186 21.8396 9.52399C21.6868 9.34473 21.4973 9.19589 21.2756 9.07468Z" fill="#298FC2" /> <path fillRule="evenodd" clipRule="evenodd" d="M20.7293 8.84963C20.6495 8.82556 20.5672 8.80381 20.4828 8.78413C20.3979 8.76495 20.311 8.74797 20.2215 8.73306C19.9083 8.68076 19.5651 8.65595 19.1975 8.65595H16.0945C16.018 8.65595 15.9454 8.67379 15.8805 8.70605C15.7373 8.77717 15.6311 8.9172 15.6053 9.08864L14.9451 13.4102L14.9262 13.5362C14.9696 13.2517 15.2047 13.0424 15.4838 13.0424H16.6453C18.9266 13.0424 20.7128 12.0847 21.2349 9.31458C21.2505 9.23259 21.2636 9.1528 21.2753 9.07471C21.1433 9.00225 21.0002 8.9403 20.8462 8.88751C20.8081 8.87444 20.7689 8.86185 20.7293 8.84963Z" fill="#22284F" /> <path fillRule="evenodd" clipRule="evenodd" d="M15.6054 9.08865C15.6312 8.91721 15.7375 8.77718 15.8807 8.70655C15.9461 8.67417 16.0182 8.65633 16.0947 8.65633H19.1977C19.5653 8.65633 19.9085 8.68126 20.2216 8.73356C20.3111 8.74834 20.398 8.76545 20.4829 8.78463C20.5673 8.80418 20.6496 8.82606 20.7294 8.85001C20.769 8.86223 20.8083 8.87493 20.8467 8.88752C21.0007 8.94031 21.1439 9.00275 21.276 9.07472C21.4313 8.05085 21.2747 7.35373 20.7391 6.72248C20.1486 6.02743 19.0829 5.73001 17.7192 5.73001H13.7601C13.4815 5.73001 13.2439 5.93933 13.2009 6.22429L11.5519 17.0279C11.5194 17.2416 11.6789 17.4344 11.8874 17.4344H14.3316L15.6054 9.08865Z" fill="#28356A" /> </symbol>
<symbol id="Pinterest" xmlns="http://www.w3.org/2000/svg" fill="none" viewBox="0 0 24 24"> <path d="M13.6372 0.111996C10.7664 -0.282916 7.84967 0.374216 5.42555 1.96205C3.00144 3.54988 1.23369 5.96118 0.448715 8.75069C-0.336255 11.5402 -0.0854291 14.5195 1.15488 17.1385C2.39519 19.7575 4.54121 21.8393 7.19668 22.9995C7.12486 22.0779 7.19078 21.1506 7.39224 20.2484C7.61421 19.2417 8.9472 13.6938 8.9472 13.6938C8.68176 13.0988 8.54911 12.4532 8.55846 11.8017C8.55846 10.02 9.58669 8.69062 10.8657 8.69062C11.0955 8.68728 11.3233 8.73345 11.5336 8.826C11.7439 8.91855 11.9319 9.0553 12.0846 9.22696C12.2374 9.39863 12.3514 9.60117 12.4189 9.82083C12.4864 10.0405 12.5058 10.2721 12.4758 10.4999C12.4758 11.5798 11.7823 13.2139 11.42 14.7473C11.3484 15.0285 11.3438 15.3226 11.4067 15.6059C11.4696 15.8891 11.5982 16.1537 11.7821 16.3782C11.9659 16.6027 12.2 16.7809 12.4653 16.8983C12.7307 17.0158 13.0199 17.0693 13.3097 17.0545C15.5869 17.0545 17.1131 14.1378 17.1131 10.6943C17.1131 8.05472 15.365 6.07744 12.1423 6.07744C11.3713 6.04748 10.6022 6.17453 9.88176 6.45089C9.16134 6.72724 8.5046 7.14712 7.95141 7.68505C7.39823 8.22297 6.96014 8.86772 6.66375 9.58013C6.36736 10.2925 6.21884 11.0578 6.22723 11.8293C6.19288 12.6852 6.469 13.5246 7.00471 14.1929C7.10481 14.2677 7.1779 14.3729 7.21296 14.4928C7.24802 14.6127 7.24315 14.7408 7.19907 14.8576C7.14388 15.0784 7.00471 15.6051 6.94951 15.7983C6.93803 15.8638 6.91133 15.9257 6.87155 15.979C6.83178 16.0323 6.78004 16.0755 6.72051 16.1052C6.66098 16.1348 6.59531 16.1501 6.52881 16.1497C6.4623 16.1493 6.39681 16.1333 6.33761 16.103C4.67708 15.4383 3.8948 13.611 3.8948 11.5246C3.8948 8.10872 6.75515 4.01977 12.4782 4.01977C17.0327 4.01977 20.061 7.35164 20.061 10.9151C20.061 15.6051 17.449 19.1314 13.5893 19.1314C13.0124 19.1498 12.4402 19.0225 11.9255 18.7612C11.4109 18.4999 10.9704 18.113 10.6449 17.6364C10.6449 17.6364 9.95143 20.4151 9.81466 20.9407C9.53545 21.8486 9.12346 22.7101 8.59205 23.4975C9.69947 23.8334 10.8501 24.0014 12.0067 23.9966C13.5827 23.9978 15.1436 23.6882 16.5998 23.0854C18.056 22.4826 19.379 21.5985 20.493 20.4837C21.6071 19.3688 22.4903 18.0452 23.092 16.5886C23.6938 15.132 24.0024 13.5709 24 11.9949C23.9985 9.09735 22.9487 6.2982 21.0444 4.11429C19.1401 1.93038 16.51 0.509209 13.6396 0.113195L13.6372 0.111996Z" fill="currentColor" /></symbol>
<symbol id="Stripe" xmlns="http://www.w3.org/2000/svg" fill="none" viewBox="0 0 34 24"> <path d="M0 3C0 1.34315 1.34315 0 3 0H31C32.6569 0 34 1.34315 34 3V21C34 22.6569 32.6569 24 31 24H3C1.34315 24 0 22.6569 0 21V3Z" fill="white" /> <rect x="0.5" y="0.5" width="33" height="23" rx="2.5" stroke="#fff" /> <path fillRule="evenodd" clipRule="evenodd" d="M18.2682 8.14192L16.541 8.52349V7.08202L18.2682 6.70752V8.14192ZM21.8599 8.94038C21.1856 8.94038 20.7521 9.26542 20.5113 9.49153L20.4218 9.05344H18.908V17.2924L20.6282 16.9179L20.6351 14.9183C20.8828 15.102 21.2475 15.3634 21.853 15.3634C23.0847 15.3634 24.2063 14.3459 24.2063 12.106C24.1995 10.0568 23.0641 8.94038 21.8599 8.94038ZM21.4471 13.8089C21.0411 13.8089 20.8002 13.6605 20.6351 13.4768L20.6282 10.8553C20.8071 10.6504 21.0548 10.509 21.4471 10.509C22.0732 10.509 22.5067 11.2298 22.5067 12.1554C22.5067 13.1023 22.0801 13.8089 21.4471 13.8089ZM29.6286 12.1766C29.6286 10.3677 28.7754 8.94038 27.1446 8.94038C25.5069 8.94038 24.5161 10.3677 24.5161 12.1625C24.5161 14.2894 25.6858 15.3634 27.3648 15.3634C28.1836 15.3634 28.8029 15.1726 29.2708 14.9041V13.4909C28.8029 13.7312 28.2662 13.8795 27.585 13.8795C26.9175 13.8795 26.3257 13.6393 26.2501 12.8055H29.6148C29.6148 12.7666 29.6173 12.6782 29.6202 12.5763L29.6202 12.5761C29.624 12.4377 29.6286 12.2743 29.6286 12.1766ZM26.2294 11.5054C26.2294 10.7069 26.7042 10.3748 27.1377 10.3748C27.5574 10.3748 28.0047 10.7069 28.0047 11.5054H26.2294ZM16.5409 9.06052H18.2681V15.2433H16.5409V9.06052ZM14.58 9.06051L14.6901 9.5834C15.0961 8.82026 15.9012 8.97572 16.1214 9.06051V10.6857C15.908 10.608 15.22 10.509 14.814 11.0531V15.2433H13.0937V9.06051H14.58ZM11.2495 7.52717L9.57056 7.8946L9.56368 13.5545C9.56368 14.6003 10.3275 15.3705 11.3459 15.3705C11.9101 15.3705 12.323 15.2645 12.55 15.1373V13.7029C12.3298 13.7947 11.2426 14.1198 11.2426 13.074V10.5656H12.55V9.0605H11.2426L11.2495 7.52717ZM7.18295 10.4737C6.81826 10.4737 6.59807 10.5797 6.59807 10.8553C6.59807 11.1562 6.97702 11.2885 7.44715 11.4527C8.21358 11.7204 9.22234 12.0728 9.2266 13.3779C9.2266 14.6427 8.24262 15.3705 6.81138 15.3705C6.21961 15.3705 5.5728 15.2504 4.93287 14.9677V13.286C5.51087 13.611 6.24026 13.8513 6.81138 13.8513C7.19671 13.8513 7.47195 13.7453 7.47195 13.4203C7.47195 13.087 7.06116 12.9346 6.56522 12.7507C5.80994 12.4706 4.85718 12.1173 4.85718 10.9401C4.85718 9.6894 5.78611 8.9404 7.18295 8.9404C7.75407 8.9404 8.31831 9.03225 8.88944 9.26543V10.926C8.36648 10.6362 7.70591 10.4737 7.18295 10.4737Z" fill="#6461FC" /> </symbol>
<symbol id="Twitter" xmlns="http://www.w3.org/2000/svg" fill="none" viewBox="0 0 25 22"> <path fillRule="evenodd" clipRule="evenodd" d="M22.3622 5.78508C22.3713 6.01826 22.3743 6.25134 22.3743 6.48452C22.3743 13.5541 17.4012 21.7156 8.30706 21.7156C5.51351 21.7156 2.91591 20.8252 0.727295 19.3095C1.11417 19.3519 1.50708 19.3838 1.90602 19.3838C4.22225 19.3838 6.3556 18.5251 8.04781 17.0836C5.88432 17.0518 4.05746 15.4938 3.4274 13.3739C3.72987 13.4375 4.04136 13.4694 4.35991 13.4694C4.80909 13.4694 5.2452 13.4059 5.66323 13.2787C3.39924 12.7912 1.69399 10.629 1.69399 8.03221C1.69399 8.00041 1.69399 7.98975 1.69399 7.96855C2.36123 8.36072 3.12492 8.60438 3.93585 8.63617C2.60741 7.67165 1.73416 6.02884 1.73416 4.17399C1.73416 3.19887 1.97734 2.27671 2.40542 1.48178C4.84324 4.7251 8.48795 6.85555 12.5969 7.07814C12.5125 6.68597 12.4693 6.27271 12.4693 5.85934C12.4693 2.90219 14.683 0.506744 17.4142 0.506744C18.8361 0.506744 20.1204 1.15338 21.0217 2.19209C22.1502 1.95891 23.2073 1.51378 24.164 0.899035C23.7932 2.14973 23.0104 3.19882 21.9874 3.85597C22.9883 3.72878 23.9429 3.44282 24.8282 3.01886C24.164 4.08937 23.3279 5.03254 22.3622 5.78508Z" fill="currentColor" /> </symbol>
<symbol id="Facebook" xmlns="http://www.w3.org/2000/svg" fill="none" viewBox="0 0 24 24"> <path fillRule="evenodd" clipRule="evenodd" d="M0 12C0 17.9333 4.33333 22.8667 10 23.8667L10.0669 23.8132C10.0446 23.8088 10.0223 23.8045 10 23.8V15.3333H7V12H10V9.33333C10 6.33333 11.9333 4.66667 14.6667 4.66667C15.5333 4.66667 16.4667 4.8 17.3333 4.93333V8H15.8C14.3333 8 14 8.73333 14 9.66667V12H17.2L16.6667 15.3333H14V23.8C13.9777 23.8045 13.9554 23.8088 13.9331 23.8132L14 23.8667C19.6667 22.8667 24 17.9333 24 12C24 5.4 18.6 0 12 0C5.4 0 0 5.4 0 12Z" fill="currentColor" /> </symbol>
<symbol id="Visa" xmlns="http://www.w3.org/2000/svg" fill="none" viewBox="0 0 34 24"> <path d="M0 3C0 1.34315 1.34315 0 3 0H31C32.6569 0 34 1.34315 34 3V21C34 22.6569 32.6569 24 31 24H3C1.34315 24 0 22.6569 0 21V3Z" fill="white" /> <rect x="0.5" y="0.5" width="33" height="23" rx="2.5" stroke="#fff" /> <path fillRule="evenodd" clipRule="evenodd" d="M10.7503 15.8582H8.69056L7.146 9.79237C7.07269 9.51334 6.91703 9.26666 6.68806 9.1504C6.11664 8.85823 5.48696 8.6257 4.80005 8.50843V8.27489H8.11813C8.57607 8.27489 8.91953 8.6257 8.97677 9.03313L9.77817 13.4086L11.8369 8.27489H13.8394L10.7503 15.8582ZM14.9843 15.8582H13.039L14.6408 8.27489H16.5861L14.9843 15.8582ZM19.1028 10.3757C19.16 9.96728 19.5035 9.73374 19.9042 9.73374C20.5338 9.6751 21.2197 9.79238 21.7922 10.0835L22.1356 8.45081C21.5632 8.21727 20.9335 8.1 20.3621 8.1C18.4741 8.1 17.1003 9.15041 17.1003 10.6082C17.1003 11.7173 18.0734 12.2996 18.7603 12.6504C19.5035 13.0002 19.7897 13.2337 19.7324 13.5835C19.7324 14.1082 19.16 14.3418 18.5886 14.3418C17.9017 14.3418 17.2147 14.1669 16.5861 13.8747L16.2426 15.5085C16.9295 15.7996 17.6727 15.9169 18.3596 15.9169C20.4766 15.9745 21.7922 14.9251 21.7922 13.35C21.7922 11.3665 19.1028 11.2502 19.1028 10.3757ZM28.6 15.8582L27.0555 8.27489H25.3965C25.053 8.27489 24.7095 8.50843 24.5951 8.85823L21.7349 15.8582H23.7374L24.1371 14.7502H26.5976L26.8265 15.8582H28.6ZM25.6827 10.3171L26.2541 13.1751H24.6523L25.6827 10.3171Z" fill="#172B85" /> </symbol>
<symbol id="Clock" xmlns="http://www.w3.org/2000/svg" viewBox="0 0 256 256"><path fill="none" d="M0 0h256v256H0z"/><path fill="none" stroke="currentColor" stroke-linecap="round" stroke-linejoin="round" stroke-width="18" d="M128 80v48m41.6 24L128 128m56.2-28.3h40v-40"/><path d="M190.2 190.2a88 88 0 1 1 0-124.4l34 33.9" fill="none" stroke="currentColor" stroke-linecap="round" stroke-linejoin="round" stroke-width="18"/></symbol>
<symbol id="MapPin" xmlns="http://www.w3.org/2000/svg" viewBox="0 0 256 256"><path fill="none" d="M0 0h256v256H0z"/><circle cx="128" cy="104" r="32" fill="none" stroke="currentColor" stroke-linecap="round" stroke-linejoin="round" stroke-width="16"/><path d="M208 104c0 72-80 128-80 128s-80-56-80-128a80 80 0 0 1 160 0Z" fill="none" stroke="currentColor" stroke-linecap="round" stroke-linejoin="round" stroke-width="16"/></symbol>
<symbol id="Ellipsis" xmlns="http://www.w3.org/2000/svg" fill="none" viewBox="0 0 20 18" ><circle opacity="0.6" cx="2" cy="11" r="2" fill="currentColor"/><circle opacity="0.6" cx="10" cy="11" r="2" fill="currentColor"/><circle opacity="0.6" cx="18" cy="11" r="2" fill="currentColor"/></symbol>
<symbol id="Checked" xmlns="http://www.w3.org/2000/svg" fill="none" viewBox="0 0 19 18"><path d="M15.6875 5.0625L7.8125 12.9375L3.875 9" stroke="currentColor" stroke-width="1.5" stroke-linecap="round" stroke-linejoin="round"/></symbol>
<symbol id="ArrowElbowDownRight" xmlns="http://www.w3.org/2000/svg" viewBox="0 0 256 256" fill="currentColor"><rect width="256" height="256" fill="none"></rect><polyline points="160 128 208 176 160 224" fill="none" stroke="currentColor" stroke-linecap="round" stroke-linejoin="round" stroke-width="16"></polyline><polyline points="64 32 64 176 208 176" fill="none" stroke="currentColor" stroke-linecap="round" stroke-linejoin="round" stroke-width="16"></polyline></symbol>
<symbol id="Info" xmlns="http://www.w3.org/2000/svg" width="24" height="24" fill="none"><path fill-rule="evenodd" clip-rule="evenodd" d="M12 3.75a8.25 8.25 0 1 0 0 16.5 8.25 8.25 0 0 0 0-16.5ZM2.25 12c0-5.385 4.365-9.75 9.75-9.75s9.75 4.365 9.75 9.75-4.365 9.75-9.75 9.75S2.25 17.385 2.25 12Zm8.25-.75a.75.75 0 0 1 .75-.75H12a.75.75 0 0 1 .75.75v4.5a.75.75 0 0 1 0 1.5H12a.75.75 0 0 1-.75-.75V12a.75.75 0 0 1-.75-.75Zm2.438-3.375a1.125 1.125 0 1 1-2.25 0 1.125 1.125 0 0 1 2.25 0Z" fill="currentColor"/></symbol>
<symbol id="ArrowsClockwise" xmlns="http://www.w3.org/2000/svg" fill="none" viewBox="0 0 256 256"><rect width="256" height="256" fill="none"></rect><polyline points="176.2 99.7 224.2 99.7 224.2 51.7" fill="none" stroke="currentColor" stroke-linecap="round" stroke-linejoin="round" stroke-width="16"></polyline><path d="M65.8,65.8a87.9,87.9,0,0,1,124.4,0l34,33.9" fill="none" stroke="currentColor" stroke-linecap="round" stroke-linejoin="round" stroke-width="16"></path><polyline points="79.8 156.3 31.8 156.3 31.8 204.3" fill="none" stroke="currentColor" stroke-linecap="round" stroke-linejoin="round" stroke-width="16"></polyline><path d="M190.2,190.2a87.9,87.9,0,0,1-124.4,0l-34-33.9" fill="none" stroke="currentColor" stroke-linecap="round" stroke-linejoin="round" stroke-width="16"></path></symbol>
<symbol id="DotsThree" xmlns="http://www.w3.org/2000/svg" fill="currentColor" viewBox="0 0 256 256"><rect width="256" height="256" fill="none"></rect><circle cx="128" cy="128" r="12"></circle><circle cx="192" cy="128" r="12"></circle><circle cx="64" cy="128" r="12"></circle></symbol>
<symbol id="Envelop" xmlns="http://www.w3.org/2000/svg" fill="none" viewBox="0 0 256 256"><path fill="none" d="M0 0h256v256H0z"/><path stroke="currentColor" stroke-linecap="round" stroke-linejoin="round" d="m224 56-96 88-96-88"/><path d="M32 56h192v136a8 8 0 0 1-8 8H40a8 8 0 0 1-8-8V56h0Zm78.5 72-76 69.7m187 0-76-69.7" fill="none" stroke="currentColor" stroke-linecap="round" stroke-linejoin="round"/>
<symbol id="Tag" xmlns="http://www.w3.org/2000/svg" fill="none" viewBox="0 0 256 256"><path fill="none" d="M0 0h256v256H0z"/><path d="M122.7 25.9 42 42l-16.1 80.7a8 8 0 0 0 2.2 7.2l104.4 104.4a7.9 7.9 0 0 0 11.3 0l90.5-90.5a7.9 7.9 0 0 0 0-11.3L129.9 28.1a8 8 0 0 0-7.2-2.2Z" stroke="currentColor" stroke-linecap="round" stroke-linejoin="round" stroke-width="16"/><circle cx="84" cy="84" r="12" fill="currentColor"/></symbol>
<symbol id="Ruler" xmlns="http://www.w3.org/2000/svg" fill="none" viewBox="0 0 256 256"><rect width="256" height="256" fill="none"></rect><rect x="26.2" y="82.7" width="203.6" height="90.51" rx="8" transform="translate(-53 128) rotate(-45)" fill="none" stroke="#000000" stroke-linecap="round" stroke-linejoin="round" stroke-width="16"></rect><line x1="132" y1="60" x2="164" y2="92" fill="none" stroke="#000000" stroke-linecap="round" stroke-linejoin="round" stroke-width="16"></line><line x1="96" y1="96" x2="128" y2="128" fill="none" stroke="#000000" stroke-linecap="round" stroke-linejoin="round" stroke-width="16"></line><line x1="60" y1="132" x2="92" y2="164" fill="none" stroke="#000000" stroke-linecap="round" stroke-linejoin="round" stroke-width="16"></line></symbol>
<symbol id="Bag" xmlns="http://www.w3.org/2000/svg" fill="none" viewBox="0 0 256 256"><rect width="256" height="256" fill="none"></rect><rect x="32" y="72" width="192" height="144" rx="8" fill="none" stroke="#000000" stroke-linecap="round" stroke-linejoin="round" stroke-width="16"></rect><path d="M88,104V72a40,40,0,0,1,80,0v32" fill="none" stroke="#000000" stroke-linecap="round" stroke-linejoin="round" stroke-width="16"></path></symbol>
</svg>
