<svg width="714" height="133" viewBox="0 0 714 133" fill="none" xmlns="http://www.w3.org/2000/svg">
<path d="M699.086 23H509.015C501.275 23 495 29.2745 495 37.0145V96.5759C495 104.316 501.275 110.59 509.015 110.59H699.086C706.826 110.59 713.1 104.316 713.1 96.5759V37.0145C713.1 29.2745 706.826 23 699.086 23Z" fill="#FFA7C5" fill-opacity="0.25"/>
<path d="M540.7 76.801V56.9433H545.145C550.411 56.9433 554.711 60.0355 554.711 66.8963C554.711 73.7571 550.411 76.801 545.145 76.801H540.7ZM545.435 84C555.774 84 562.684 77.4774 562.684 66.8963C562.684 56.3152 555.774 49.7443 545.483 49.7443H533.066V84H545.435ZM577.206 66.848C577.206 59.6973 582.328 56.4601 587.111 56.4601C591.846 56.4601 596.968 59.6973 596.968 66.848C596.968 73.9987 591.846 77.1875 587.111 77.1875C582.328 77.1875 577.206 73.9987 577.206 66.848ZM569.283 66.8963C569.283 77.719 577.448 84.7247 587.111 84.7247C596.726 84.7247 604.891 77.719 604.891 66.8963C604.891 56.0253 596.726 49.0195 587.111 49.0195C577.448 49.0195 569.283 56.0253 569.283 66.8963ZM629.271 84.7247C639.9 84.7247 644.442 77.4774 645.553 72.7425L638.258 70.6649C637.581 73.129 635.214 77.0909 629.271 77.0909C624.15 77.0909 619.415 73.3706 619.415 66.9446C619.415 59.7456 624.584 56.4601 629.174 56.4601C635.214 56.4601 637.388 60.4703 637.92 62.8378L645.119 60.567C644.007 55.6388 639.466 49.0195 629.174 49.0195C619.608 49.0195 611.491 56.2669 611.491 66.9446C611.491 77.6223 619.415 84.7247 629.271 84.7247ZM677.512 58.1512C676.787 54.141 673.55 49.0195 664.998 49.0195C658.428 49.0195 652.726 53.5612 652.726 60.0355C652.726 65.1086 656.253 68.9739 662.051 70.0851L666.738 70.9548C669.009 71.3896 670.41 72.6458 670.41 74.3852C670.41 76.5111 668.574 77.9606 665.578 77.9606C660.892 77.9606 658.766 75.2066 658.476 72.0661L651.47 73.7571C651.953 78.5887 656.012 84.7247 665.482 84.7247C673.647 84.7247 678.14 79.2651 678.14 73.902C678.14 69.0222 674.758 64.8187 668.236 63.6108L663.646 62.7412C661.278 62.3063 660.264 61.0984 660.264 59.4557C660.264 57.5714 662.1 55.7837 664.95 55.7837C669.105 55.7837 670.41 58.4894 670.651 60.0838L677.512 58.1512Z" fill="#FF1D68"/>
<path d="M116.058 13H22.3784C15.1145 13 10.4631 20.746 13.8621 27.1856L23.2325 44.9841H6.24504C5.16925 44.9845 4.11177 45.2635 3.17503 45.7941C2.23829 46.3248 1.45405 47.0891 0.898256 48.013C0.342467 48.937 0.0339702 49.9892 0.00264873 51.0679C-0.0286728 52.1465 0.21824 53.215 0.719474 54.1698L30.8596 111.392C31.391 112.398 32.1857 113.241 33.1584 113.828C34.131 114.415 35.2449 114.726 36.3802 114.726C37.5155 114.726 38.6294 114.415 39.602 113.828C40.5747 113.241 41.3694 112.398 41.9008 111.392L50.0864 95.9351L60.3561 115.437C63.9705 122.296 73.7617 122.309 77.3887 115.457L124.343 26.8263C127.662 20.5576 123.134 13 116.058 13ZM73.9771 50.8684L53.7309 89.0936C53.377 89.7628 52.8481 90.3228 52.201 90.7133C51.5538 91.1038 50.8128 91.3101 50.0576 91.3101C49.3024 91.3101 48.5614 91.1038 47.9143 90.7133C47.2671 90.3228 46.7382 89.7628 46.3843 89.0936L26.3335 51.0292C25.9983 50.3946 25.8323 49.6839 25.8513 48.9659C25.8704 48.248 26.0739 47.5472 26.4423 46.9314C26.8106 46.3155 27.3312 45.8055 27.9537 45.4507C28.5762 45.0959 29.2795 44.9084 29.9955 44.9062H70.4053C71.1034 44.9063 71.7895 45.0875 72.3971 45.4323C73.0046 45.7771 73.5129 46.2737 73.8725 46.8739C74.232 47.4741 74.4306 48.1574 74.449 48.8573C74.4673 49.5573 74.3048 50.2501 73.9771 50.8684V50.8684Z" fill="#F71963"/>
<path d="M116.058 13H22.3784C15.1145 13 10.4631 20.746 13.8621 27.1856L23.2325 44.9841H6.24504C5.16925 44.9845 4.11177 45.2635 3.17503 45.7941C2.23829 46.3248 1.45405 47.0891 0.898256 48.013C0.342467 48.937 0.0339702 49.9892 0.00264873 51.0679C-0.0286728 52.1465 0.21824 53.215 0.719474 54.1698L30.8596 111.392C31.391 112.398 32.1857 113.241 33.1584 113.828C34.131 114.415 35.2449 114.726 36.3802 114.726C37.5155 114.726 38.6294 114.415 39.602 113.828C40.5747 113.241 41.3694 112.398 41.9008 111.392L50.0864 95.9351L60.3561 115.437C63.9705 122.296 73.7617 122.309 77.3887 115.457L124.343 26.8263C127.662 20.5576 123.134 13 116.058 13ZM73.9771 50.8684L53.7309 89.0936C53.377 89.7628 52.8481 90.3228 52.201 90.7133C51.5538 91.1038 50.8128 91.3101 50.0576 91.3101C49.3024 91.3101 48.5614 91.1038 47.9143 90.7133C47.2671 90.3228 46.7382 89.7628 46.3843 89.0936L26.3335 51.0292C25.9983 50.3946 25.8323 49.6839 25.8513 48.9659C25.8704 48.248 26.0739 47.5472 26.4423 46.9314C26.8106 46.3155 27.3312 45.8055 27.9537 45.4507C28.5762 45.0959 29.2795 44.9084 29.9955 44.9062H70.4053C71.1034 44.9063 71.7895 45.0875 72.3971 45.4323C73.0046 45.7771 73.5129 46.2737 73.8725 46.8739C74.232 47.4741 74.4306 48.1574 74.449 48.8573C74.4673 49.5573 74.3048 50.2501 73.9771 50.8684V50.8684Z" fill="#F71963"/>
<path d="M184.682 94L205.118 44.704V43.3H191.78L181.25 72.004C180.548 73.876 179.69 76.606 178.988 79.648H178.832C178.052 76.606 177.35 73.798 176.648 72.004L165.884 43.3H152.078V44.704L172.436 94H184.682ZM207.43 53.674H221.86V94H234.73V53.674H248.614V43.3H207.43V53.674ZM256.177 43.3V94H291.277V83.548H269.047V73.72H287.923V63.034H269.047V53.674H291.277V43.3H256.177ZM312.525 43.3H298.329V44.704L314.163 67.168L295.833 92.596V94H309.717L321.417 77.152L332.337 94H346.611V92.596L329.139 66.934L344.115 44.704V43.3H330.543L321.885 57.808L312.525 43.3ZM368.595 87.136C368.595 82.768 365.163 80.116 360.951 80.116C356.739 80.116 353.307 82.768 353.307 87.136V87.76C353.307 92.206 356.739 94.624 360.951 94.624C365.163 94.624 368.595 92.206 368.595 87.76V87.136ZM392.674 94V43.3H379.804V94H392.674ZM400.533 67.714V69.586C400.533 84.796 412.233 95.17 427.287 95.17C442.341 95.17 454.041 84.796 454.041 69.586V67.714C454.041 52.504 442.263 42.13 427.287 42.13C412.311 42.13 400.533 52.504 400.533 67.714ZM414.027 68.65C414.027 59.914 418.395 52.972 427.209 52.972C436.179 52.972 440.547 59.914 440.547 68.65C440.547 77.386 435.789 84.328 427.209 84.328C418.785 84.328 414.027 77.386 414.027 68.65Z" fill="#142032"/>
</svg>
