<svg width="504" height="504" xmlns="http://www.w3.org/2000/svg">

 <title>VTEX_icon_pink_RGB</title>
 <g>
  <title>background</title>
  <rect fill="none" id="canvas_background" height="433" width="506" y="-1" x="-1"/>
 </g>
 <g>
  <title>Layer 1</title>
  <path fill="#f71963" id="svg_2" d="m465.146332,1.482688l-374,0c-29,0 -47.57,30.83 -34,56.46l37.43,70.84l-67.84,0a24.94,24.94 0 0 0 -22.06,36.56l120.33,227.75a24.94,24.94 0 0 0 44.08,0l32.68,-61.52l41,77.62c14.43,27.3 53.52,27.35 68,0.08l187.46,-352.76c13.25,-24.95 -4.83,-55.03 -33.08,-55.03zm-168,150.72l-80.83,152.14a16.6,16.6 0 0 1 -29.33,0l-80.05,-151.5a16.6,16.6 0 0 1 14.67,-24.35l161.28,0a16.15,16.15 0 0 1 14.26,23.71z" class="a"/>
 </g>
</svg>