<svg xmlns="http://www.w3.org/2000/svg" height="64" width="64" viewBox="0 0 64 64"><title>palette</title><g stroke-linecap="square" stroke-width="3" stroke-miterlimit="10" fill="none" stroke="#142032" stroke-linejoin="miter" transform="translate(0.5 0.5)"><circle cx="46" cy="28" r="6" stroke="#f71963"></circle> <circle cx="14" cy="28" r="4" stroke="#f71963"></circle> <circle cx="18" cy="42" r="4" stroke="#f71963"></circle> <circle cx="32" cy="48" r="4" stroke="#f71963"></circle> <path d="M2,30.1 C2,19.9,7.1,10.9,14.8,5.4c2.8-1.9,7.3-2.4,9.1,0c2.6,3.4-2.1,8.2,0,11c5.4,6.6,16.8-6.4,30.2,0c9.6,4.8,8.2,17.4,7.1,21.9 C57.6,51,46,60.2,32.2,60.2C15.5,60.2,2,46.7,2,30.1z"></path></g></svg>